<?xml version="1.0" encoding="UTF-8" standalone="no"?>
<!-- Created with Inkscape (http://www.inkscape.org/) -->

<svg
   xmlns:dc="http://purl.org/dc/elements/1.1/"
   xmlns:cc="http://creativecommons.org/ns#"
   xmlns:rdf="http://www.w3.org/1999/02/22-rdf-syntax-ns#"
   xmlns:svg="http://www.w3.org/2000/svg"
   xmlns="http://www.w3.org/2000/svg"
   xmlns:xlink="http://www.w3.org/1999/xlink"
   version="1.1"
   width="744.09448"
   height="1052.3622"
   id="svg2">
  <defs
     id="defs4" />
  <metadata
     id="metadata7">
    <rdf:RDF>
      <cc:Work
         rdf:about="">
        <dc:format>image/svg+xml</dc:format>
        <dc:type
           rdf:resource="http://purl.org/dc/dcmitype/StillImage" />
        <dc:title></dc:title>
      </cc:Work>
    </rdf:RDF>
  </metadata>
  <g
     id="layer1"
     style="display:none">
    <path
       d="m 480,366.64789 a 212.85715,158.57143 0 1 1 -425.714294,0 212.85715,158.57143 0 1 1 425.714294,0 z"
       transform="matrix(0.78221475,0,0,1.05,146.10834,-157.68954)"
       id="path2985"
       style="fill:#e6e6e6;fill-opacity:1" />
  </g>
  <g
     id="layer2"
     style="display:none">
    <path
       d="m 340,288.79074 a 93.571426,83.571426 0 1 1 -187.14285,0 93.571426,83.571426 0 1 1 187.14285,0 z"
       transform="matrix(2.3725191,0,0,2.6564103,-231.22793,-436.78454)"
       id="path3047"
       style="fill:#ececec;fill-opacity:1" />
  </g>
  <g
     id="layer3"
     style="display:inline">
    <path
       d="m 501.42857,253.79076 a 235.71428,150 0 1 1 -471.428555,0 235.71428,150 0 1 1 471.428555,0 z"
       transform="matrix(1.1772728,0,0,1.85,36.110386,32.492137)"
       id="path3049"
       style="fill:#f2f2f2;fill-opacity:1" />
    <text
       id="text3070"
       xml:space="preserve"
       style="font-size:33px;font-style:normal;font-weight:normal;line-height:125%;letter-spacing:0px;word-spacing:0px;fill:#000000;fill-opacity:1;stroke:none;font-family:Sans"><textPath
         xlink:href="#path3049"
         id="textPath3074"><tspan
   id="tspan3072">test test test test test test</tspan></textPath></text>
  </g>
</svg>
