<?xml version="1.0" encoding="UTF-8" standalone="no"?>
<!-- Created with Inkscape (http://www.inkscape.org/) -->

<svg
   xmlns:dc="http://purl.org/dc/elements/1.1/"
   xmlns:cc="http://creativecommons.org/ns#"
   xmlns:rdf="http://www.w3.org/1999/02/22-rdf-syntax-ns#"
   xmlns:svg="http://www.w3.org/2000/svg"
   xmlns="http://www.w3.org/2000/svg"
   xmlns:sodipodi="http://sodipodi.sourceforge.net/DTD/sodipodi-0.dtd"
   xmlns:inkscape="http://www.inkscape.org/namespaces/inkscape"
   width="744.09448819"
   height="1052.3622047"
   id="svg2"
   version="1.1"
   inkscape:version="0.48.4 r9939"
   sodipodi:docname="mainGraph.svg"
   inkscape:dataloss="true">
  <defs
     id="defs4" />
  <sodipodi:namedview
     id="base"
     pagecolor="#ffffff"
     bordercolor="#666666"
     borderopacity="1.0"
     inkscape:pageopacity="0.0"
     inkscape:pageshadow="2"
     inkscape:zoom="0.7"
     inkscape:cx="193.03303"
     inkscape:cy="629.03045"
     inkscape:document-units="px"
     inkscape:current-layer="layer3"
     showgrid="false"
     inkscape:window-width="1920"
     inkscape:window-height="1056"
     inkscape:window-x="0"
     inkscape:window-y="24"
     inkscape:window-maximized="1"
     showguides="true"
     inkscape:guide-bbox="true" />
  <metadata
     id="metadata7">
    <rdf:RDF>
      <cc:Work
         rdf:about="">
        <dc:format>image/svg+xml</dc:format>
        <dc:type
           rdf:resource="http://purl.org/dc/dcmitype/StillImage" />
        <dc:title></dc:title>
      </cc:Work>
    </rdf:RDF>
  </metadata>
  <g
     inkscape:label="mainLayer"
     inkscape:groupmode="layer"
     id="layer1"
     style="display:inline">
    <path
       style="font-size:medium;font-style:normal;font-variant:normal;font-weight:normal;font-stretch:normal;text-indent:0;text-align:start;text-decoration:none;line-height:normal;letter-spacing:normal;word-spacing:normal;text-transform:none;direction:ltr;block-progression:tb;writing-mode:lr-tb;text-anchor:start;baseline-shift:baseline;color:#000000;fill-opacity:1;fill-rule:nonzero;stroke:none;stroke-width:1;marker:none;visibility:visible;display:inline;overflow:visible;enable-background:accumulate;font-family:Sans;-inkscape-font-specification:Sans"
       d="m 355.0625,258.875 c -92.22563,0 -167,74.77437 -167,167 0,92.22563 74.77437,167 167,167 92.22563,0 167,-74.77437 167,-167 0,-92.22563 -74.77437,-167 -167,-167 z m 0,1 c 91.68519,0 166,74.31481 166,166 0,91.68519 -74.31481,166 -166,166 -91.68519,0 -166,-74.31481 -166,-166 0,-91.68519 74.31481,-166 166,-166 z"
       inkscape:connector-curvature="0" />
    <path
       style="fill:none;stroke:#000000;stroke-width:1px;stroke-linecap:butt;stroke-linejoin:miter;stroke-opacity:1"
       d="m 260,286.6479 c 97.14286,131.42857 94.28571,128.57143 94.28571,128.57143 L 480,313.79075 375.71429,179.50504 z"
       id="path3217"
       inkscape:connector-curvature="0" />
  </g>
  <g
     inkscape:groupmode="layer"
     id="layer2"
     inkscape:label="firstLayer"
     style="display:none">
    <path
       sodipodi:type="arc"
       style="fill:#ececec;fill-opacity:1"
       id="path3047"
       sodipodi:cx="246.42857"
       sodipodi:cy="288.79074"
       sodipodi:rx="93.571426"
       sodipodi:ry="83.571426"
       d="m 340,288.79074 a 93.571426,83.571426 0 1 1 -187.14285,0 93.571426,83.571426 0 1 1 187.14285,0 z"
       transform="matrix(2.3725191,0,0,2.6564103,-231.22793,-436.78454)" />
  </g>
  <g
     inkscape:groupmode="layer"
     id="layer3"
     inkscape:label="secondLayer"
     style="display:none">
    <path
       style="fill:#f2f2f2;fill-opacity:1"
       d="m 501.42857,253.79076 c 0,82.84271 -105.53287,150 -235.71428,150 -130.1814,0 -235.714275,-67.15729 -235.714275,-150 0,-82.84272 105.532875,-150 235.714275,-150 130.18141,0 235.71428,67.15728 235.71428,150 z"
       id="path3049"
       transform="matrix(1.1772728,0,0,1.85,36.110386,32.492137)"
       inkscape:connector-curvature="0" />
    <g
       style="font-size:33px;font-style:normal;font-weight:normal;line-height:125%;letter-spacing:0px;word-spacing:0px;fill:#000000;fill-opacity:1;stroke:none;font-family:Sans"
       id="text3070">
      <path
         d="m 649.52928,508.57834 -5.12268,-0.11742 -0.13995,6.10533 -2.30359,-0.0528 0.13994,-6.10533 -9.7943,-0.2245 c -1.4713,-0.0337 -2.42091,0.14328 -2.84885,0.53104 -0.4282,0.39849 -0.65645,1.21525 -0.68475,2.45029 l -0.0698,3.04461 -2.48079,-0.0569 0.0698,-3.04461 c 0.0524,-2.28749 0.51283,-3.85645 1.38118,-4.70689 0.87908,-0.8502 2.44626,-1.24945 4.70153,-1.19775 l 9.7943,0.2245 0.0499,-2.17472 2.3036,0.0528 -0.0498,2.17472 5.12268,0.11742 -0.0683,2.98017"
         id="path3129"
         inkscape:connector-curvature="0" />
      <path
         d="m 634.52495,534.25396 -1.4453,-0.11905 1.11908,-13.58582 c -2.04471,-0.0391 -3.64733,0.44328 -4.80787,1.4471 -1.15072,1.0154 -1.80677,2.5027 -1.96815,4.46189 -0.0935,1.13482 -0.0447,2.24364 0.14636,3.32647 0.19016,1.0935 0.52039,2.18778 0.99068,3.28284 l -2.79425,-0.23017 c -0.36234,-1.09694 -0.61542,-2.21181 -0.75924,-3.34461 -0.14382,-1.13284 -0.16855,-2.27201 -0.0742,-3.41753 0.23634,-2.8692 1.2588,-5.07542 3.06737,-6.61868 1.8077,-1.53255 4.13543,-2.18154 6.98321,-1.94697 2.94412,0.24251 5.21275,1.227 6.80591,2.95346 1.60294,1.73803 2.29331,3.956 2.0711,6.65391 -0.19932,2.41952 -1.13826,4.26615 -2.81684,5.53989 -1.66877,1.2853 -3.8414,1.81772 -6.51787,1.59727 m 1.11058,-2.8834 c 1.61835,0.11173 2.94589,-0.23701 3.98263,-1.04621 1.03583,-0.79854 1.61372,-1.9258 1.73367,-3.38179 0.13579,-1.64873 -0.22101,-3.00927 -1.0704,-4.08163 -0.8503,-1.06168 -2.11503,-1.73712 -3.79421,-2.02633 l -0.85169,10.53596"
         id="path3131"
         inkscape:connector-curvature="0" />
      <path
         d="m 639.73867,552.26647 -2.77239,-0.41793 c 0.54977,-0.76449 0.99814,-1.57685 1.3451,-2.43707 0.34694,-0.86025 0.59247,-1.76837 0.73659,-2.72435 0.21936,-1.45525 0.16122,-2.58296 -0.17441,-3.38313 -0.33726,-0.78957 -0.95201,-1.2516 -1.84426,-1.3861 -0.67983,-0.10249 -1.25548,0.0769 -1.72695,0.53814 -0.46087,0.46283 -0.98506,1.45387 -1.57257,2.97312 l -0.37438,0.97017 c -0.75998,2.01468 -1.61458,3.39589 -2.56378,4.14363 -0.94019,0.75992 -2.13791,1.03021 -3.59314,0.81086 -1.65706,-0.24981 -2.86962,-1.10614 -3.63768,-2.56899 -0.76966,-1.45226 -0.98156,-3.32557 -0.63569,-5.61995 0.14411,-0.956 0.39023,-1.94007 0.73835,-2.95222 0.3359,-1.00313 0.7762,-2.05027 1.32091,-3.14142 l 3.02732,0.45636 c -0.7263,0.99859 -1.31212,2.00207 -1.75744,3.01043 -0.4347,1.00996 -0.72971,2.03012 -0.88503,3.06047 -0.20816,1.38088 -0.1346,2.47832 0.22069,3.29234 0.36591,0.81559 0.97906,1.28825 1.83946,1.41796 0.79666,0.12008 1.44827,-0.0587 1.95482,-0.53638 0.50494,-0.46707 1.09084,-1.57917 1.75768,-3.3363 l 0.39272,-0.9837 c 0.6562,-1.75876 1.43817,-2.98253 2.34592,-3.67131 0.91835,-0.6872 2.06796,-0.92671 3.44886,-0.71855 1.67829,0.253 2.88452,1.04319 3.6187,2.37059 0.73415,1.32738 0.93631,3.08516 0.60647,5.27334 -0.16335,1.08344 -0.39673,2.09116 -0.70016,3.02315 -0.30346,0.93196 -0.67536,1.77758 -1.11571,2.53684"
         id="path3133"
         inkscape:connector-curvature="0" />
      <path
         d="m 643.4397,562.8293 -5.0176,-1.0389 -1.23818,5.9801 -2.25635,-0.46718 1.23819,-5.9801 -9.5934,-1.98631 c -1.44112,-0.29839 -2.40709,-0.29545 -2.89792,0.009 -0.49301,0.31478 -0.86474,1.07702 -1.11521,2.28672 l -0.61746,2.98216 -2.4299,-0.50312 0.61745,-2.98215 c 0.46391,-2.24058 1.19958,-3.70085 2.207,-4.38083 1.01794,-0.67781 2.63142,-0.78802 4.84042,-0.33065 l 9.5934,1.98632 0.44104,-2.13011 2.25635,0.46717 -0.44104,2.13012 5.0176,1.03889 -0.60439,2.91905"
         id="path3135"
         inkscape:connector-curvature="0" />
      <path
         d="m 637.26604,587.49433 -4.91108,-1.46182 -1.74223,5.85314 -2.20844,-0.65736 1.74223,-5.85314 -9.38974,-2.79493 c -1.41052,-0.41986 -2.37324,-0.49907 -2.88817,-0.23764 -0.51799,0.27171 -0.9532,0.99957 -1.30563,2.1836 l -0.86881,2.91884 -2.37833,-0.70792 0.86882,-2.91885 c 0.65277,-2.193 1.50995,-3.58543 2.57154,-4.17728 1.0719,-0.58879 2.6889,-0.5614 4.85101,0.0822 l 9.38974,2.79492 0.62058,-2.08489 2.20844,0.65736 -0.62058,2.08489 4.91108,1.46182 -0.85043,2.85708"
         id="path3137"
         inkscape:connector-curvature="0" />
      <path
         d="m 616.00905,608.31841 -1.36243,-0.49686 4.67046,-12.80679 c -1.96166,-0.57818 -3.63479,-0.5366 -5.01939,0.12476 -1.37819,0.6751 -2.40405,1.93608 -3.07757,3.78293 -0.39012,1.06975 -0.63617,2.15202 -0.73814,3.24684 -0.10564,1.10488 -0.0764,2.24753 0.0877,3.42794 l -2.63402,-0.96059 c -0.0595,-1.1537 -0.009,-2.29582 0.15186,-3.42634 0.16074,-1.13055 0.43801,-2.23575 0.83181,-3.31558 0.98636,-2.70467 2.55563,-4.56216 4.70781,-5.57245 2.1485,-1.00022 4.56499,-1.01083 7.24947,-0.0318 2.7753,1.01211 4.70301,2.56125 5.78314,4.64742 1.08651,2.09993 1.16604,4.4215 0.23859,6.9647 -0.83179,2.28078 -2.22546,3.81354 -4.18102,4.59827 -1.94917,0.79847 -4.18525,0.73766 -6.70825,-0.18242 m 1.83325,-2.48729 c 1.53125,0.53554 2.90375,0.55012 4.11752,0.0437 1.21007,-0.49633 2.06537,-1.43074 2.56592,-2.80324 0.56677,-1.55419 0.5823,-2.96065 0.0466,-4.21939 -0.53942,-1.24868 -1.58063,-2.2344 -3.12364,-2.95719 l -3.60639,9.93608"
         id="path3139"
         inkscape:connector-curvature="0" />
      <path
         d="m 616.26175,627.07363 -2.56262,-1.13744 c 0.73266,-0.59154 1.38021,-1.25609 1.94266,-1.99367 0.56244,-0.7376 1.03977,-1.54823 1.432,-2.43188 0.59704,-1.34514 0.83972,-2.44796 0.72806,-3.30846 -0.11604,-0.8507 -0.58643,-1.45908 -1.41117,-1.82515 -0.62839,-0.27892 -1.23099,-0.25845 -1.80781,0.0614 -0.56702,0.32421 -1.33502,1.14098 -2.30401,2.4503 l -0.61802,0.83633 c -1.26655,1.74137 -2.45651,2.84683 -3.56988,3.3164 -1.10792,0.4837 -2.33445,0.42704 -3.67958,-0.16999 -1.53168,-0.67987 -2.47406,-1.82682 -2.82715,-3.44088 -0.35744,-1.60426 -0.0655,-3.46678 0.87583,-5.58756 0.39223,-0.88367 0.89024,-1.76738 1.49406,-2.65114 0.58964,-0.87831 1.29162,-1.77139 2.10593,-2.67925 l 2.79826,1.24203 c -0.9649,0.77051 -1.79561,1.58294 -2.49215,2.43731 -0.68673,0.85871 -1.24145,1.76426 -1.66418,2.71666 -0.56654,1.27639 -0.78634,2.35412 -0.65939,3.23317 0.13677,0.88339 0.60281,1.50159 1.3981,1.85461 0.73639,0.32683 1.41208,0.32705 2.02708,6.4e-4 0.61063,-0.31661 1.4702,-1.23377 2.57871,-2.75147 l 0.63929,-0.84452 c 1.09868,-1.52208 2.1769,-2.49496 3.23469,-2.91867 1.06758,-0.41936 2.23958,-0.34576 3.51599,0.22079 1.5513,0.68856 2.50511,1.77007 2.86141,3.24453 0.35628,1.47445 0.0856,3.22298 -0.81219,5.2456 -0.44453,1.00146 -0.93654,1.91135 -1.47602,2.72966 -0.53951,0.81827 -1.12214,1.53515 -1.7479,2.15063"
         id="path3141"
         inkscape:connector-curvature="0" />
      <path
         d="m 617.03084,638.24016 -4.56299,-2.33125 -2.77844,5.43828 -2.05192,-1.04833 2.77845,-5.43828 -8.72421,-4.45724 c -1.31055,-0.66957 -2.24277,-0.92268 -2.79668,-0.75934 -0.55879,0.1729 -1.1192,0.80939 -1.68125,1.90949 l -1.38555,2.71197 -2.20975,-1.12897 1.38555,-2.71197 c 1.041,-2.03757 2.1373,-3.25072 3.28888,-3.63946 1.16116,-0.38387 2.74617,-0.0626 4.75503,0.96371 l 8.72421,4.45724 0.98968,-1.93712 2.05191,1.04833 -0.98968,1.93712 4.56299,2.33125 -1.35623,2.65457"
         id="path3143"
         inkscape:connector-curvature="0" />
      <path
         d="m 604.55171,660.38079 -4.34949,-2.70879 -3.2284,5.18383 -1.9559,-1.2181 3.2284,-5.18383 -8.31602,-5.17906 c -1.24922,-0.77801 -2.1567,-1.10905 -2.72244,-0.99313 -0.57141,0.12502 -1.18364,0.71184 -1.83671,1.76047 l -1.60994,2.58507 -2.10636,-1.3118 1.60994,-2.58507 c 1.20959,-1.94224 2.40455,-3.05833 3.58489,-3.3483 1.18946,-0.28429 2.74162,0.16984 4.65649,1.36239 l 8.31601,5.17907 1.14996,-1.84649 1.9559,1.21811 -1.14995,1.84648 4.34949,2.70879 -1.57587,2.53036"
         id="path3145"
         inkscape:connector-curvature="0" />
      <path
         d="m 578.55458,674.84114 -1.18295,-0.83886 7.88528,-11.11977 c -1.73947,-1.07547 -3.36423,-1.477 -4.8743,-1.20458 -1.50751,0.28738 -2.82983,1.23285 -3.96696,2.83642 -0.65865,0.92882 -1.18165,1.90777 -1.56899,2.93684 -0.39354,1.03781 -0.66697,2.14764 -0.82027,3.32951 l -2.28704,-1.6218 c 0.24714,-1.12849 0.59744,-2.21673 1.05088,-3.26474 0.45347,-1.04802 1.01263,-2.04083 1.6775,-2.97842 1.66529,-2.34839 3.6692,-3.72577 6.01173,-4.13215 2.33632,-0.39762 4.66991,0.23 7.00077,1.88287 2.40971,1.70878 3.86014,3.71182 4.35129,6.00911 0.49369,2.31225 -0.0424,4.57247 -1.60827,6.78067 -1.40432,1.98033 -3.15315,3.09085 -5.24649,3.33156 -2.0908,0.25565 -4.23152,-0.39324 -6.42218,-1.94666 m 2.42478,-1.91517 c 1.33558,0.92074 2.65556,1.29709 3.95994,1.12905 1.29816,-0.15932 2.36978,-0.83482 3.21486,-2.02652 0.95691,-1.34946 1.34314,-2.70194 1.15868,-4.05745 -0.19069,-1.34677 -0.93478,-2.57238 -2.23227,-3.67682 l -6.10121,8.63174"
         id="path3147"
         inkscape:connector-curvature="0" />
      <path
         d="m 573.86422,692.99503 -2.17276,-1.77198 c 0.86254,-0.37779 1.66221,-0.84842 2.399,-1.41189 0.73678,-0.56351 1.41069,-1.21988 2.02172,-1.96909 0.93011,-1.1405 1.45458,-2.14052 1.5734,-3.00006 0.11202,-0.85125 -0.18161,-1.562 -0.88088,-2.13228 -0.53279,-0.43452 -1.11952,-0.57342 -1.7602,-0.4167 -0.63237,0.16349 -1.58831,0.74925 -2.86782,1.75729 l -0.8164,0.64411 c -1.68032,1.34649 -3.11934,2.09967 -4.31706,2.25955 -1.19618,0.17496 -2.36452,-0.20261 -3.50501,-1.13271 -1.29866,-1.05913 -1.90583,-2.41373 -1.82153,-4.0638 0.0775,-1.64177 0.84951,-3.36172 2.31597,-5.15986 0.61103,-0.74923 1.32414,-1.47066 2.13932,-2.16427 0.80008,-0.69209 1.71241,-1.36886 2.73701,-2.03031 l 2.37255,1.93492 c -1.13371,0.4893 -2.14901,1.05436 -3.04591,1.69521 -0.88857,0.64763 -1.66213,1.37519 -2.32069,2.1827 -0.88259,1.08221 -1.37836,2.06405 -1.48732,2.94551 -0.10062,0.88824 0.18621,1.60732 0.86051,2.15726 0.62436,0.50917 1.27616,0.68727 1.9554,0.53429 0.67245,-0.14468 1.74315,-0.80318 3.21212,-1.9755 l 0.83907,-0.64642 c 1.46064,-1.17913 2.75696,-1.83384 3.88898,-1.96411 1.14033,-0.1235 2.2516,0.25605 3.33383,1.13866 1.3153,1.07268 1.95072,2.36714 1.90627,3.8834 -0.0445,1.51623 -0.76598,3.1318 -2.16455,4.84671 -0.6925,0.84911 -1.4067,1.59736 -2.14259,2.24477 -0.73591,0.64737 -1.48671,1.18557 -2.25243,1.6146"
         id="path3149"
         inkscape:connector-curvature="0" />
      <path
         d="m 571.67786,703.96341 -3.79014,-3.44825 -4.10971,4.51719 -1.70437,-1.55063 4.1097,-4.51719 -7.24657,-6.59287 c -1.08857,-0.99039 -1.92154,-1.47954 -2.4989,-1.46747 -0.58459,0.02 -1.29255,0.48689 -2.12389,1.40066 l -2.04943,2.25263 -1.83548,-1.6699 2.04943,-2.25264 c 1.53979,-1.69246 2.91631,-2.57494 4.12958,-2.64745 1.22122,-0.0653 2.66613,0.66111 4.33475,2.17921 l 7.24657,6.59287 1.46388,-1.60902 1.70437,1.55063 -1.46388,1.60902 3.79015,3.44825 -2.00606,2.20496"
         id="path3151"
         inkscape:connector-curvature="0" />
      <path
         d="m 553.8364,722.04281 -3.48738,-3.75417 -4.47431,4.15634 -1.56822,-1.6882 4.47431,-4.15634 -6.66769,-7.17779 c -1.00161,-1.07825 -1.79059,-1.63559 -2.36693,-1.67202 -0.5842,-0.0291 -1.32885,0.37669 -2.23395,1.21747 l -2.23125,2.07269 -1.68886,-1.81806 2.23126,-2.07269 c 1.6764,-1.55726 3.12213,-2.3211 4.3372,-2.29153 1.22239,0.0374 2.60124,0.88253 4.13656,2.53532 l 6.66769,7.17779 1.59375,-1.48049 1.56823,1.6882 -1.59376,1.48049 3.48738,3.75417 -2.18403,2.02882"
         id="path3153"
         inkscape:connector-curvature="0" />
      <path
         d="m 524.96231,729.18498 -0.92197,-1.1194 10.52233,-8.66646 c -1.39708,-1.4935 -2.85997,-2.30654 -4.38868,-2.43912 -1.53016,-0.11748 -3.05394,0.44868 -4.57135,1.69846 -0.87892,0.7239 -1.64005,1.5317 -2.28339,2.42341 -0.65161,0.89851 -1.20615,1.898 -1.66364,2.99846 l -1.78246,-2.16416 c 0.53407,-1.02438 1.15715,-1.98289 1.86924,-2.87556 0.71212,-0.89268 1.51178,-1.70439 2.39899,-2.43512 2.22222,-1.83028 4.51692,-2.63476 6.88411,-2.41344 2.35891,0.22814 4.44667,1.44503 6.26328,3.65066 1.87807,2.28024 2.75327,4.59323 2.62562,6.93897 -0.12913,2.36083 -1.23846,4.40176 -3.328,6.12278 -1.87395,1.54341 -3.85258,2.15715 -5.9359,1.84121 -2.08477,-0.30086 -3.98083,-1.48776 -5.68818,-3.56069 m 2.84172,-1.21327 c 1.04782,1.23839 2.22316,1.94731 3.52602,2.12675 1.29458,0.18624 2.50571,-0.18503 3.6334,-1.1138 1.27693,-1.05174 2.0039,-2.25586 2.18088,-3.61237 0.16869,-1.3497 -0.22844,-2.7274 -1.19139,-4.13311 l -8.14891,6.73253"
         id="path3155"
         inkscape:connector-curvature="0" />
      <path
         d="m 515.6819,745.47731 -1.63287,-2.27915 c 0.93138,-0.13871 1.82638,-0.38349 2.68503,-0.73434 0.85864,-0.35089 1.68092,-0.80786 2.46684,-1.3709 1.19633,-0.85711 1.96438,-1.68488 2.30416,-2.4833 0.33104,-0.7922 0.2338,-1.55505 -0.29172,-2.28856 -0.4004,-0.55888 -0.93028,-0.84659 -1.58964,-0.86312 -0.65311,-0.008 -1.72909,0.30714 -3.22794,0.9449 l -0.95659,0.40783 c -1.9743,0.85944 -3.56035,1.20948 -4.75814,1.05011 -1.20025,-0.14441 -2.22892,-0.81478 -3.08603,-2.0111 -0.97596,-1.36226 -1.20719,-2.8286 -0.6937,-4.399 0.50478,-1.56417 1.70026,-3.02192 3.58644,-4.37325 0.78593,-0.56306 1.66307,-1.07255 2.63145,-1.52848 0.9534,-0.4584 2.01113,-0.87262 3.1732,-1.24265 l 1.78301,2.48873 c -1.22228,0.17531 -2.35013,0.45476 -3.38355,0.83836 -1.02717,0.39231 -1.96427,0.8919 -2.81132,1.49876 -1.1352,0.8133 -1.8708,1.63103 -2.2068,2.45319 -0.32973,0.83089 -0.24123,1.59999 0.26552,2.30733 0.46922,0.65491 1.05163,0.99749 1.74722,1.02773 0.68687,0.0365 1.89266,-0.31864 3.61738,-1.06534 l 0.97907,-0.40411 c 1.71846,-0.75546 3.141,-1.04782 4.26762,-0.87708 1.13287,0.17945 2.10596,0.83678 2.91928,1.972 0.98847,1.3797 1.26271,2.7954 0.82272,4.24709 -0.44,1.45167 -1.55943,2.82189 -3.35829,4.11069 -0.89071,0.63811 -1.77594,1.17321 -2.65569,1.60531 -0.87976,0.43205 -1.74531,0.75483 -2.59666,0.96835"
         id="path3157"
         inkscape:connector-curvature="0" />
      <path
         d="m 510.69516,755.49182 -2.754,-4.32101 -5.14988,3.28228 -1.23843,-1.94309 5.14988,-3.28228 -5.26551,-8.26155 c -0.79098,-1.24105 -1.46664,-1.93141 -2.02699,-2.07107 -0.56939,-0.1339 -1.37497,0.13114 -2.41673,0.79511 l -2.56814,1.63681 -1.3337,-2.09257 2.56815,-1.63681 c 1.92951,-1.22977 3.48919,-1.72067 4.67906,-1.47269 1.19564,0.25703 2.39969,1.33671 3.61214,3.23905 l 5.26551,8.26155 1.83439,-1.16915 1.23844,1.94309 -1.83439,1.16915 2.754,4.32101 -2.5138,1.60217"
         id="path3159"
         inkscape:connector-curvature="0" />
      <path
         d="m 488.72384,768.26484 -2.37889,-4.53833 -5.4089,2.83522 -1.06975,-2.04083 5.40889,-2.83522 -4.54832,-8.67707 c -0.68324,-1.30347 -1.29813,-2.04846 -1.84466,-2.23499 -0.55605,-0.18155 -1.38114,0.0144 -2.47529,0.58797 l -2.69732,1.41387 -1.15204,-2.19781 2.69731,-1.41387 c 2.02656,-1.06227 3.62216,-1.41958 4.78681,-1.0719 1.16963,0.35718 2.27811,1.53477 3.32542,3.53279 l 4.54832,8.67706 1.92665,-1.0099 1.06975,2.04082 -1.92665,1.00991 2.37889,4.53833 -2.64022,1.38395"
         id="path3161"
         inkscape:connector-curvature="0" />
      <path
         d="m 458.97831,767.56596 -0.5948,-1.3226 12.43247,-5.59113 c -0.95469,-1.80858 -2.15198,-2.97802 -3.59188,-3.50831 -1.44528,-0.5161 -3.06435,-0.37101 -4.85722,0.43528 -1.03848,0.46703 -1.9854,1.04599 -2.84076,1.73691 -0.86514,0.69531 -1.66322,1.51358 -2.39423,2.45482 l -1.14995,-2.55703 c 0.78487,-0.84767 1.63828,-1.60838 2.56023,-2.28212 0.92198,-0.67376 1.9071,-1.24636 2.95537,-1.71779 2.62562,-1.18079 5.05116,-1.35288 7.27662,-0.51627 2.21566,0.84101 3.90949,2.56453 5.08146,5.17055 1.21163,2.69418 1.44714,5.15598 0.70654,7.38539 -0.746,2.24359 -2.35343,3.92054 -4.82229,5.03086 -2.21413,0.99572 -4.28454,1.06699 -6.21122,0.21382 -1.93206,-0.83901 -3.44884,-2.48314 -4.55034,-4.93238 m 3.06087,-0.42248 c 0.6849,1.47053 1.63219,2.46382 2.84187,2.97988 1.1999,0.52043 2.46605,0.48105 3.79844,-0.11813 1.50875,-0.67854 2.52703,-1.64884 3.05484,-2.91092 0.51801,-1.2577 0.49753,-2.69136 -0.0614,-4.30096 l -9.6337,4.35013"
         id="path3163"
         inkscape:connector-curvature="0" />
      <path
         d="m 445.72095,780.83502 -0.97348,-2.62928 c 0.93496,0.11201 1.86284,0.11211 2.78364,3e-4 0.9208,-0.11184 1.83453,-0.3356 2.74117,-0.67126 1.38013,-0.51101 2.33941,-1.10673 2.87786,-1.78717 0.52837,-0.67675 0.6359,-1.43822 0.3226,-2.28441 -0.23871,-0.64474 -0.67388,-1.06209 -1.3055,-1.25205 -0.62789,-0.17991 -1.74885,-0.16007 -3.36287,0.0595 l -1.03031,0.14091 c -2.13112,0.30793 -3.75331,0.22698 -4.86658,-0.24285 -1.11958,-0.45605 -1.93487,-1.37413 -2.44587,-2.75424 -0.58184,-1.57154 -0.41789,-3.04691 0.49184,-4.42612 0.89969,-1.3755 2.4375,-2.46606 4.61345,-3.2717 0.90666,-0.33568 1.88717,-0.59562 2.94154,-0.77981 1.04058,-0.19054 2.17012,-0.31092 3.38864,-0.36116 l 1.063,2.87106 c -1.22521,-0.15348 -2.38683,-0.18159 -3.48485,-0.0843 -1.09429,0.10733 -2.13001,0.34189 -3.10718,0.70369 -1.3096,0.48487 -2.23493,1.07947 -2.776,1.78382 -0.53732,0.7144 -0.65493,1.4796 -0.35282,2.29559 0.27974,0.75553 0.75109,1.23967 1.41404,1.45242 0.6529,0.21645 1.90966,0.19215 3.77029,-0.0729 l 1.05101,-0.1314 c 1.85691,-0.27514 3.30617,-0.18171 4.34779,0.2803 1.04535,0.47206 1.81047,1.3629 2.29534,2.67252 0.58931,1.59165 0.48021,3.02954 -0.3273,4.31365 -0.80751,1.28407 -2.24887,2.31029 -4.32409,3.07865 -1.02753,0.38042 -2.0226,0.66293 -2.9852,0.84752 -0.96259,0.18456 -1.88264,0.26747 -2.76016,0.24874"
         id="path3165"
         inkscape:connector-curvature="0" />
      <path
         d="m 438.25504,789.17828 -1.5134,-4.89544 -5.83449,1.80371 -0.68055,-2.20141 5.83449,-1.8037 -2.89354,-9.35982 c -0.43466,-1.40603 -0.90372,-2.25047 -1.40719,-2.53333 -0.51373,-0.2797 -1.36071,-0.23711 -2.54096,0.12776 l -2.90955,0.89947 -0.7329,-2.37074 2.90955,-0.89948 c 2.18602,-0.67579 3.81999,-0.7368 4.90193,-0.18301 1.08512,0.56404 1.96082,1.92367 2.62709,4.0789 l 2.89354,9.35982 2.07825,-0.64248 0.68055,2.2014 -2.07825,0.64248 1.5134,4.89543 -2.84797,0.88044"
         id="path3167"
         inkscape:connector-curvature="0" />
      <path
         d="m 413.67433,795.68271 -1.09151,-5.00642 -5.96677,1.30088 -0.49083,-2.25131 5.96677,-1.30088 -2.0869,-9.57202 c -0.31349,-1.43791 -0.70902,-2.3192 -1.18661,-2.64385 -0.48807,-0.32238 -1.3356,-0.352 -2.54261,-0.0888 l -2.97551,0.64872 -0.52859,-2.42449 2.97551,-0.64873 c 2.23558,-0.4874 3.86882,-0.40919 4.89974,0.23461 1.03321,0.6543 1.79008,2.08349 2.27061,4.28758 l 2.0869,9.57202 2.12537,-0.46337 0.49083,2.25131 -2.12537,0.46338 1.09151,5.00642 -2.91254,0.63499"
         id="path3169"
         inkscape:connector-curvature="0" />
      <path
         d="m 385.17714,787.1274 -0.22316,-1.43292 13.46947,-2.09768 c -0.44144,-1.99688 -1.28614,-3.44172 -2.5341,-4.33453 -1.25691,-0.88055 -2.85656,-1.16957 -4.79898,-0.86707 -1.1251,0.17522 -2.19157,0.48264 -3.19941,0.92226 -1.01843,0.44127 -2.00477,1.01887 -2.95903,1.73281 l -0.43144,-2.77031 c 0.9814,-0.60945 2.00585,-1.11689 3.07335,-1.52231 1.06753,-0.40543 2.16915,-0.69658 3.30486,-0.87345 2.84462,-0.44301 5.22908,0.0336 7.15338,1.42993 1.9137,1.39794 3.0904,3.50861 3.5301,6.33201 0.45458,2.9189 0.0295,5.35513 -1.27529,7.30868 -1.31373,1.96579 -3.30799,3.15697 -5.98278,3.57355 -2.39881,0.37356 -4.41412,-0.10621 -6.04594,-1.43932 -1.64075,-1.32089 -2.66776,-3.3081 -3.08103,-5.96165 m 3.06342,0.40353 c 0.27085,1.59943 0.92114,2.80819 1.95088,3.62628 1.01915,0.81972 2.25049,1.11718 3.69402,0.89239 1.6346,-0.25458 2.87355,-0.92045 3.71686,-1.9976 0.8327,-1.07553 1.19276,-2.46339 1.08018,-4.16357 l -10.44194,1.6425"
         id="path3171"
         inkscape:connector-curvature="0" />
      <path
         d="m 368.88814,796.41608 -0.24363,-2.7931 c 0.87207,0.35523 1.7669,0.60067 2.68449,0.7363 0.91761,0.1356 1.85797,0.16141 2.82111,0.0774 1.46611,-0.1279 2.54877,-0.44878 3.24797,-0.96264 0.6885,-0.51296 0.99354,-1.21889 0.91513,-2.11781 -0.0597,-0.68491 -0.36907,-1.20247 -0.92799,-1.55267 -0.55798,-0.33953 -1.64428,-0.61679 -3.25892,-0.83177 l -1.0309,-0.13652 c -2.1367,-0.26652 -3.67976,-0.7735 -4.62918,-1.52097 -0.95915,-0.73585 -1.50268,-1.83682 -1.63059,-3.30292 -0.1456,-1.66945 0.40261,-3.04897 1.64464,-4.13856 1.23136,-1.08866 3.00279,-1.7338 5.31432,-1.93543 0.96315,-0.084 1.97749,-0.0755 3.04304,0.0257 1.05392,0.0914 2.1751,0.27394 3.36354,0.54767 l 0.26604,3.04995 c -1.14103,-0.47197 -2.25387,-0.80622 -3.33854,-1.00275 -1.08371,-0.18582 -2.1446,-0.23346 -3.18266,-0.14291 -1.39119,0.12135 -2.44081,0.45013 -3.14885,0.98634 -0.70709,0.54691 -1.02284,1.25378 -0.94724,2.12061 0.07,0.80261 0.39659,1.39415 0.9797,1.77461 0.57242,0.38138 1.79088,0.69024 3.65538,0.92658 l 1.04835,0.15117 c 1.86357,0.22562 3.23656,0.69892 4.11895,1.4199 0.88333,0.73166 1.38567,1.7931 1.50702,3.18431 0.14749,1.69083 -0.33791,3.0487 -1.45621,4.07359 -1.11829,1.02487 -2.77969,1.63346 -4.98422,1.82577 -1.09155,0.0952 -2.1259,0.10455 -3.10305,0.0281 -0.97713,-0.0765 -1.88636,-0.23983 -2.7277,-0.48992"
         id="path3173"
         inkscape:connector-curvature="0" />
      <path
         d="m 359.50429,802.49348 -0.17003,-5.1212 -6.10357,0.20265 -0.0765,-2.30293 6.10357,-0.20265 -0.3251,-9.79148 c -0.0488,-1.47088 -0.27882,-2.40907 -0.68997,-2.81459 -0.42187,-0.40517 -1.25015,-0.58726 -2.48483,-0.54626 l -3.04373,0.10106 -0.0824,-2.48008 3.04374,-0.10106 c 2.28683,-0.0759 3.87914,0.29575 4.77693,1.11504 0.89816,0.83003 1.38467,2.37235 1.45953,4.62697 l 0.3251,9.79148 2.17409,-0.0722 0.0765,2.30293 -2.1741,0.0722 0.17004,5.1212 -2.97932,0.0989"
         id="path3175"
         inkscape:connector-curvature="0" />
    </g>
  </g>
</svg>
