<?xml version="1.0" encoding="UTF-8" standalone="no"?>
<!-- Created with Inkscape (http://www.inkscape.org/) -->

<svg
   xmlns:dc="http://purl.org/dc/elements/1.1/"
   xmlns:cc="http://creativecommons.org/ns#"
   xmlns:rdf="http://www.w3.org/1999/02/22-rdf-syntax-ns#"
   xmlns:svg="http://www.w3.org/2000/svg"
   xmlns="http://www.w3.org/2000/svg"
   xmlns:sodipodi="http://sodipodi.sourceforge.net/DTD/sodipodi-0.dtd"
   xmlns:inkscape="http://www.inkscape.org/namespaces/inkscape"
   id="svg2"
   version="1.1"
   inkscape:version="0.48.4 r9939"
   width="750"
   height="150"
   sodipodi:docname="taxilogoBW.jpg">
  <metadata
     id="metadata8">
    <rdf:RDF>
      <cc:Work
         rdf:about="">
        <dc:format>image/svg+xml</dc:format>
        <dc:type
           rdf:resource="http://purl.org/dc/dcmitype/StillImage" />
        <dc:title></dc:title>
      </cc:Work>
    </rdf:RDF>
  </metadata>
  <defs
     id="defs6" />
  <sodipodi:namedview
     pagecolor="#ffffff"
     bordercolor="#666666"
     borderopacity="1"
     objecttolerance="10"
     gridtolerance="10"
     guidetolerance="10"
     inkscape:pageopacity="0"
     inkscape:pageshadow="2"
     inkscape:window-width="640"
     inkscape:window-height="480"
     id="namedview4"
     showgrid="false"
     inkscape:zoom="0.35066667"
     inkscape:cx="375"
     inkscape:cy="75"
     inkscape:window-x="613"
     inkscape:window-y="178"
     inkscape:window-maximized="0"
     inkscape:current-layer="svg2" />
  <g
     id="g2987"
     transform="translate(4.1444867e-7,1.7490494e-6)">
    <path
       style="fill:#fbfbfb"
       d="m 0,75 0,-75 375,0 375,0 0,75 0,75 -375,0 -375,0 0,-75 z"
       id="path3003"
       inkscape:connector-curvature="0" />
    <path
       style="fill:#e6e6e6"
       d="M 0,75 0,0 150.07442,0 300.14885,0 299.62197,26.25 c -0.28978,14.4375 -0.51721,26.925 -0.5054,27.75 0.52133,36.419645 0.42237,96 -0.15946,96 -0.43474,0 -1.01742,-0.5625 -1.29483,-1.25 -0.40351,-1 -0.52017,-1 -0.58333,0 C 297.01617,149.74403 266.59123,150 148.5,150 L 0,150 0,75 z m 449.15547,51 c -0.0907,-13.475 0.23983,-27.2 0.73451,-30.5 0.52908,-3.529439 0.53103,-6.391172 0.005,-6.95 C 449.39651,88.021015 449,68.189002 449,43.8 449,6.6784314 449.21601,0 450.41667,0 c 0.77916,0 1.64364,0.5625 1.92105,1.25 0.40351,1 0.52017,1 0.58333,0 C 452.98383,0.25596609 483.40877,0 601.5,0 l 148.5,0 0,75 0,75 -148,0 c -117.72517,0 -148.00313,-0.2557 -148.01531,-1.25 -0.0102,-0.83588 -0.34154,-0.75305 -1,0.25 -0.81935,1.24814 -1.13227,1.27111 -1.86364,0.13685 -0.74207,-1.15087 -0.95072,-1.15087 -1.33981,0 C 449.52777,149.88658 449.24618,139.475 449.15547,126 z M 369,147.79366 c -17.38275,-1.64363 -31.47648,-7.93949 -44.29891,-19.78891 -12.53998,-11.5884 -19.37257,-25.29981 -21.83919,-43.826134 -0.9865,-7.409482 -0.97855,-11.057143 0.0398,-18.252045 C 306.65754,39.389843 320.81309,20.05526 345.5,7.7429581 351.25972,4.8703646 363.01173,2 369.01315,2 c 2.26508,0 5.04305,-0.4948957 6.17327,-1.0997682 1.49423,-0.79969093 1.86948,-0.79969093 1.37524,0 C 376.10656,1.6365994 377.34332,2 380.30449,2 c 11.29275,0 27.90069,5.9731496 37.82671,13.604607 11.67834,8.978705 21.18559,21.588855 25.52854,33.860329 11.1376,31.470544 -0.29757,66.216974 -28.11812,85.438514 C 406.46336,141.17572 392.49786,147 386.53639,147 c -1.21168,0 -2.49381,0.29075 -2.84917,0.64612 -0.98716,0.98715 -5.34465,1.03093 -14.68722,0.14754 z M 382.8,121.8 c 0.88349,-0.88349 1.2,-9.66667 1.2,-33.3 0,-23.633333 0.31651,-32.416511 1.2,-33.3 0.7847,-0.784701 4.92551,-1.2 11.96482,-1.2 9.6194,0 10.87496,-0.205812 11.8,-1.934259 C 410.38669,49.408948 410.27094,39.670937 408.8,38.2 407.23286,36.632856 344.84189,36.479069 341.93426,38.035184 340.35018,38.882957 340,40.162145 340,45.100925 340,54.8103 340.24597,55 352.83518,55 c 7.03931,0 11.18012,0.415299 11.96482,1.2 0.88367,0.88367 1.2,9.692593 1.2,33.416667 0,24.837663 0.2863,32.332193 1.25,32.721053 2.58986,1.04503 14.37477,0.63751 15.55,-0.53772 z"
       id="path3001"
       inkscape:connector-curvature="0" />
    <path
       style="fill:#a8a8a8"
       d="M 361,145.64276 C 345.75022,142.59835 334.77531,136.46353 322.81642,124.29868 308.01627,109.24364 300.73645,86.2238 304.00481,64.813702 309.43444,29.245844 340.38221,2.3253592 375.5,2.6223086 c 11.33949,0.095885 20.68018,2.3356443 31.44335,7.5396484 6.96387,3.367044 10.1409,5.76939 18.13135,13.710207 8.45872,8.406184 10.26416,10.833268 14.22866,19.127836 10.2534,21.452318 10.18343,41.220102 -0.22129,62.52244 -8.58459,17.57585 -24.75179,31.78796 -43.08207,37.87219 -10.14718,3.36808 -24.70585,4.30321 -35,2.24813 z M 383.8,122.8 c 0.88349,-0.88349 1.2,-9.66667 1.2,-33.3 0,-23.633333 0.31651,-32.416511 1.2,-33.3 0.7847,-0.784701 4.92551,-1.2 11.96482,-1.2 C 410.72824,55 411,54.793705 411,45.256871 411,35.239036 413.26508,35.832277 375.49862,35.958794 336.87331,36.088187 339,35.498241 339,46.083559 339,55.561793 339.59817,56 352.53624,56 c 9.25219,0 10.50706,0.212384 11.42858,1.934259 0.64944,1.213492 1.03518,13.435808 1.03518,32.8 0,22.673351 0.3185,31.184241 1.2,32.065741 0.72281,0.72281 4.22222,1.2 8.8,1.2 4.57778,0 8.07719,-0.47719 8.8,-1.2 z"
       id="path2999"
       inkscape:connector-curvature="0" />
    <path
       style="fill:#777777"
       d="M 361,144.57668 C 335.13923,139.67683 314.03344,120.31831 307.09251,95.131992 295.47849,52.988541 321.91474,11.361677 364.75,4.3437896 374.29548,2.7799114 375.68806,2.7774318 385.0106,4.3077146 402.85049,7.2361115 415.18961,13.892265 427.74063,27.357795 438.50988,38.911731 446,58.01322 446,73.923305 446,96.90514 433.97731,119.4703 414.59286,132.87076 397.90693,144.40573 380.34422,148.24183 361,144.57668 z m 23.33091,-21.38984 c 1.43802,-1.58899 1.67354,-5.82343 1.90499,-34.250001 L 386.5,56.5 397.83397,56 c 9.7212,-0.428852 11.53546,-0.776214 12.75,-2.44113 1.96548,-2.694329 1.87276,-13.461783 -0.14067,-16.336364 C 408.88741,35.001167 408.86903,35 375.4433,35 335.93335,35 338,34.403415 338,45.80887 338,55.99974 338.50319,56.397262 352.16603,57 L 363.5,57.5 364,90.287409 c 0.42211,27.680021 0.73366,32.934971 2,33.734691 0.825,0.521 4.91776,0.95417 9.09501,0.96259 6.07716,0.0122 7.92294,-0.34705 9.2359,-1.79785 z"
       id="path2997"
       inkscape:connector-curvature="0" />
    <path
       style="fill:#636363"
       d="m 363,144.56562 c -15.7612,-2.82578 -27.22288,-8.89151 -38.62512,-20.44111 -25.17252,-25.49786 -26.37476,-66.996989 -2.75976,-95.262304 8.72735,-10.445951 24.84262,-20.2847044 38.08229,-23.2501288 8.97737,-2.0107543 22.81663,-2.0506968 31.13423,-0.089859 28.66538,6.7577398 49.00907,29.3320488 54.25217,60.2007488 3.07152,18.08351 -5.28557,42.676023 -19.40091,57.091323 C 408.29588,140.5708 385.27488,148.55922 363,144.56562 z m 22,-21.22414 c 1.26322,-1.18975 1.53269,-6.41896 1.70706,-33.127121 0.11388,-17.442898 0.22638,-31.983474 0.25,-32.312392 0.0236,-0.328919 4.84552,-0.891882 10.71534,-1.25103 C 411.3085,55.816604 412,55.280166 412,45.536142 412,33.86386 414.81438,34.680613 375.41817,34.919813 346.00854,35.098378 341.28563,35.336517 339.75933,36.717807 338.37749,37.968351 338,39.922707 338,45.826247 338,56.510894 338.59513,57 351.59597,57 c 5.6573,0 10.54123,0.412982 10.85319,0.917737 0.31195,0.504755 0.7397,15.093748 0.95055,32.419984 0.21084,17.326239 0.70321,32.019789 1.09415,32.652339 0.39094,0.63255 1.67725,1.53603 2.85847,2.00773 3.07765,1.229 15.85772,0.0295 17.64767,-1.65631 z"
       id="path2995"
       inkscape:connector-curvature="0" />
    <path
       style="fill:#373737"
       d="M 362.08931,143.8682 C 342.26627,140.57822 324.19085,127.91805 314.46629,110.51264 297.2763,79.745296 304.98507,40.063073 332.14219,19.522911 347.611,7.8231564 365.37603,2.7193019 382.82591,4.9615899 c 17.67765,2.2715557 28.72814,7.6308401 41.30126,20.0303571 7.36041,7.25878 9.29451,9.902978 13.172,18.008053 10.00979,20.923347 10.14365,40.798172 0.4129,61.30467 -5.45053,11.4864 -13.15734,20.67945 -23.09605,27.55007 -16.28915,11.26069 -33.43479,15.18209 -52.52671,12.01346 z m 22.72206,-20.16741 c 2.10796,-2.24383 2.16636,-3.06877 2.42431,-34.249998 L 387.5,57.5 398.20366,57.216638 c 10.17971,-0.269491 10.80383,-0.410706 12.75,-2.884858 C 412.48287,52.387703 413,50.260002 413,45.912194 413,39.097212 411.48278,35.158169 408.57856,34.433143 407.43535,34.147746 391.72227,34.046035 373.66061,34.20712 L 340.82122,34.5 l -1.91061,2.360784 c -2.71652,3.356584 -2.71817,14.918455 -0.003,18.278432 1.73818,2.150653 2.87304,2.405289 12.75,2.860784 l 10.84199,0.5 0.24602,32 c 0.29111,37.86588 -0.52132,35.5 12.19045,35.5 6.75659,0 7.98321,-0.2856 9.8749,-2.29921 z"
       id="path2993"
       inkscape:connector-curvature="0" />
    <path
       style="fill:#101010"
       d="M 363.5,143.30244 C 352.98549,141.90788 341.18737,136.61286 331.75781,129.05649 320.37652,119.93609 313.26173,109.35774 308.8521,95 c -2.97677,-9.692341 -3.25249,-28.065915 -0.56855,-37.887471 5.48735,-20.080314 20.35235,-37.707885 38.72357,-45.920132 19.09996,-8.5380063 39.46009,-8.0525624 58.80069,1.401978 36.00444,17.600554 48.92074,62.135125 28.22117,97.304785 -4.18566,7.11165 -14.5978,17.8613 -22.31045,23.03363 -13.02219,8.73307 -31.15556,12.63274 -48.21853,10.36965 z M 385.54545,124.54545 388,122.09091 388,90.045455 388,58 l 9.94424,0 c 8.94592,0 10.2137,-0.231788 12.62842,-2.308842 5.13649,-4.418221 4.21239,-19.681786 -1.31891,-21.784783 -1.64,-0.623525 -15.10391,-0.891904 -35.42323,-0.706101 -32.59978,0.298099 -32.79006,0.312104 -35.05411,2.580077 -1.99148,1.994932 -2.27641,3.28875 -2.27641,10.336951 0,7.587813 0.16326,8.197007 2.80576,10.469649 2.55905,2.20086 3.6802,2.413049 12.75,2.413049 L 362,59 l 0,31.545455 0,31.545455 2.45455,2.45454 C 366.65611,126.74702 367.74299,127 375,127 c 7.25701,0 8.34389,-0.25298 10.54545,-2.45455 z"
       id="path2991"
       inkscape:connector-curvature="0" />
    <path
       style="fill:#090909"
       d="m 431,102.44098 c 0,-0.85746 0.45,-1.2809 1,-0.94098 0.55,0.33992 1,1.04148 1,1.55902 0,0.51754 -0.45,0.94098 -1,0.94098 -0.55,0 -1,-0.70156 -1,-1.55902 z m -74.08096,-2.719326 c -1.10041,-2.415138 -1.0186,-2.934395 0.66279,-4.206642 1.055,-0.798273 2.25567,-1.465717 2.66817,-1.483209 1.19125,-0.05051 0.80556,3.239774 -0.69823,5.956642 l -1.37736,2.488445 -1.25537,-2.755236 z M 395,99 c 0,-1.1 0.45,-2 1,-2 0.55,0 1,0.9 1,2 0,1.1 -0.45,2 -1,2 -0.55,0 -1,-0.9 -1,-2 z m 45.07895,-11.583333 c 0.048,-1.164943 0.28494,-1.4019 0.60416,-0.604167 0.28887,0.721875 0.25335,1.584375 -0.0789,1.916667 -0.33229,0.332291 -0.56864,-0.258334 -0.52522,-1.3125 z M 393.75239,75.337132 c -0.26034,-0.460422 -0.52326,-2.546778 -0.58427,-4.636346 -0.13446,-4.605679 -0.76843,-5.791393 -2.70015,-5.050123 C 389.34455,66.081763 389,65.367385 389,62.606989 L 389,59 l 8.85078,0 c 10.84119,0 14.70194,-1.183385 15.71133,-4.81579 0.78082,-2.809907 0.66919,-15.478765 -0.1617,-18.350629 -0.93834,-3.243243 -5.51484,-3.594954 -39.84512,-3.062162 C 332.99657,33.400874 336,32.315347 336,46.345012 c 0,12.714055 0.48143,13.141203 14.56623,12.92379 L 361,59.107747 l 0,3.946126 C 361,65.224243 360.583,67 360.07332,67 c -0.50967,0 -1.07217,0.744685 -1.25,1.654855 -0.54312,2.779829 -6.81351,2.451707 -10.07991,-0.52747 -2.13556,-1.947773 -3.02546,-2.245336 -3.95,-1.320792 -1.85861,1.858611 -5.9363,1.4078 -8.42647,-0.931593 -1.24407,-1.16875 -3.41878,-2.125 -4.83268,-2.125 -3.15854,0 -4.12326,-1.335368 -2.43465,-3.37002 1.03754,-1.250157 1.00735,-1.699742 -0.16391,-2.440883 -0.78964,-0.499659 -2.2232,-0.915362 -3.1857,-0.923784 C 324.37755,57.003304 324,56.137024 324,53 c 0,-3.6 -0.25,-4 -2.5,-4 -2.6601,0 -2.81713,0.351827 -1.56215,3.5 0.54303,1.362211 0.20172,2.846464 -1.07029,4.65437 C 317.8404,58.614274 317,60.976774 317,62.40437 317,64.48964 316.52005,65 314.55902,65 c -2.88233,0 -4.38957,-1.868657 -2.4661,-3.05743 0.74204,-0.458603 1.00022,-1.18276 0.57375,-1.609237 C 312.24019,59.906856 311.49019,60.206856 311,61 c -0.49019,0.793144 -1.19631,1.137019 -1.56917,0.764168 -0.90619,-0.906196 0.3363,-4.026122 1.35312,-3.397696 0.43894,0.27128 0.62284,-1.007762 0.40866,-2.842315 C 310.80801,52.229732 315.395,40 317.01524,40 c 0.40817,0 1.26081,-1.252242 1.89478,-2.78276 3.11232,-7.513822 24.77275,-25.767403 28.12104,-23.698046 0.53292,0.329362 0.96894,0.133838 0.96894,-0.434497 0,-3.042306 15.66563,-7.0954882 27.31538,-7.0673334 10.55768,0.025516 19.77684,2.3431872 30.51089,7.6703584 16.09162,7.986062 28.06943,21.781527 33.6148,38.715907 3.65541,11.162814 3.82863,13.9213 0.95925,15.275433 -2.0813,0.982215 -2.41693,0.879458 -2.52532,-0.773147 -0.25692,-3.917308 -0.58134,-5.471383 -1.65041,-7.905915 -0.6038,-1.375 -1.12634,-1.9375 -1.1612,-1.25 -0.0848,1.671199 -1.58963,1.580903 -3.37291,-0.202381 -0.79881,-0.798809 -1.73096,-1.173809 -2.07143,-0.833333 C 429.27857,57.054762 429,56.358333 429,55.166667 429,53.975 428.55,53 428,53 c -0.55,0 -1,0.9 -1,2 0,1.1 -0.625,2 -1.38889,2 -0.76389,0 -1.32639,-0.5625 -1.25,-1.25 0.0764,-0.6875 -0.31111,-1.357471 -0.86111,-1.488823 -0.55,-0.131353 -1.00568,0.400943 -1.01263,1.18288 -0.0262,2.944063 -4.52388,6.381498 -8.32946,6.365876 -5.90485,-0.02424 -6.16279,0.0727 -7.15791,2.690067 -1.02684,2.700799 -5,3.548979 -5,1.067388 0,-1.815058 -4.01024,-3.168857 -4.93836,-1.667122 -0.37877,0.61286 -0.79779,3.248516 -0.93116,5.857012 -0.23402,4.576914 -1.39925,7.310976 -2.37809,5.579854 z m 29.80916,-27.037339 c -0.46448,-1.210398 -0.91884,-1.342506 -1.75195,-0.509392 -0.83312,0.833114 -0.76926,1.553284 0.24623,2.776871 1.55102,1.868868 2.52826,0.397232 1.50572,-2.267479 z M 358,21.5 c 0,-1.833333 -0.53333,-2.5 -2,-2.5 -2.46692,0 -2.59365,1.828872 -0.25,3.607954 2.30229,1.747684 2.25,1.77343 2.25,-1.107954 z m 9.30282,-6 c -0.25553,-1.295929 -2.96202,-1.844754 -5.08321,-1.030779 -1.43489,0.550621 -1.46123,0.769218 -0.19158,1.590302 1.83167,1.184553 5.5411,0.791076 5.27479,-0.559523 z m 70.85597,57.895909 C 438.61117,71.02429 443,70.149046 443,72.430449 443,73.293702 442.5868,74 442.08179,74 c -0.50502,0 -1.67566,0.290659 -2.60143,0.645909 -1.26861,0.486812 -1.59413,0.17892 -1.32157,-1.25 z M 311.47616,70.961426 c -1.00797,-1.630922 1.23102,-3.654248 2.56622,-2.319044 0.72318,0.723175 0.59733,1.411746 -0.41097,2.248558 -1.07422,0.891523 -1.63646,0.90991 -2.15525,0.07049 z m 48.60279,-1.544759 c 0.048,-1.164943 0.28494,-1.4019 0.60416,-0.604167 0.28887,0.721875 0.25335,1.584375 -0.0789,1.916667 -0.33229,0.332291 -0.56864,-0.258334 -0.52522,-1.3125 z M 324.8125,61.316886 c 0.72187,-0.288871 1.58438,-0.253344 1.91667,0.07895 0.33229,0.332292 -0.25834,0.568641 -1.3125,0.52522 -1.16495,-0.04798 -1.4019,-0.284941 -0.60417,-0.604167 z"
       id="path2989"
       inkscape:connector-curvature="0" />
  </g>
</svg>
