<?xml version="1.0" encoding="UTF-8" standalone="no"?>
<!-- Created with Inkscape (http://www.inkscape.org/) -->

<svg
   xmlns:dc="http://purl.org/dc/elements/1.1/"
   xmlns:cc="http://creativecommons.org/ns#"
   xmlns:rdf="http://www.w3.org/1999/02/22-rdf-syntax-ns#"
   xmlns:svg="http://www.w3.org/2000/svg"
   xmlns="http://www.w3.org/2000/svg"
   xmlns:sodipodi="http://sodipodi.sourceforge.net/DTD/sodipodi-0.dtd"
   xmlns:inkscape="http://www.inkscape.org/namespaces/inkscape"
   id="svg2"
   version="1.1"
   inkscape:version="0.48.4 r9939"
   width="750"
   height="150"
   sodipodi:docname="taxilogo.jpg">
  <metadata
     id="metadata8">
    <rdf:RDF>
      <cc:Work
         rdf:about="">
        <dc:format>image/svg+xml</dc:format>
        <dc:type
           rdf:resource="http://purl.org/dc/dcmitype/StillImage" />
        <dc:title></dc:title>
      </cc:Work>
    </rdf:RDF>
  </metadata>
  <defs
     id="defs6" />
  <sodipodi:namedview
     pagecolor="#ffffff"
     bordercolor="#666666"
     borderopacity="1"
     objecttolerance="10"
     gridtolerance="10"
     guidetolerance="10"
     inkscape:pageopacity="0"
     inkscape:pageshadow="2"
     inkscape:window-width="640"
     inkscape:window-height="480"
     id="namedview4"
     showgrid="false"
     inkscape:zoom="0.35066667"
     inkscape:cx="375"
     inkscape:cy="75"
     inkscape:window-x="0"
     inkscape:window-y="24"
     inkscape:window-maximized="0"
     inkscape:current-layer="svg2" />
  <g
     id="g2987"
     transform="translate(2.8517106,4.8288973e-6)">
    <path
       style="fill:#e0dfdf"
       d="m 0,75 0,-75 375,0 375,0 0,75 0,75 -375,0 -375,0 0,-75 z"
       id="path3003"
       inkscape:connector-curvature="0" />
    <path
       style="fill:#d9a352"
       d="m 299.60699,148.41821 c -0.80693,-2.10283 -0.77396,-70.347613 0.055,-113.754817 L 300.32389,0 l 74.18723,0 74.18723,0 0.64565,9.75 c 0.81907,12.368835 0.86296,136.5471 0.049,138.66821 C 448.84705,149.84095 441.31665,150 374.5,150 c -66.81665,0 -74.34705,-0.15905 -74.89301,-1.58179 z"
       id="path3001"
       inkscape:connector-curvature="0" />
    <path
       style="fill:#df9321"
       d="m 300.36669,148.25 c 0.2758,-0.9625 0.64363,-34.64668 0.81738,-74.853739 L 301.5,0.29252259 306.75,0.1208245 C 309.78178,0.02167197 312,0.38239208 312,0.97456321 312,1.5385534 313.575,2 315.5,2 c 1.925,0 3.5,-0.4697143 3.5,-1.04380955 0,-0.65602044 2.68983,-0.9346554 7.24019,-0.75 6.82516,0.27696737 7.31715,0.45481465 8.58271,3.10252235 0.94491,1.9768855 1.96118,2.7172846 3.43148,2.5 3.39397,-0.5015699 3.1778,-2.7199854 -0.41718,-4.2811789 L 334.5,0.07828362 338.76357,0.03914181 c 2.34496,-0.021528 5.04496,0.38367676 6,0.90045502 0.95504,0.51677827 3.01364,1.21031897 4.57468,1.54120147 2.35108,0.4983419 2.63044,0.852001 1.62756,2.0604032 C 350.29992,5.3435407 348.93677,6 347.93657,6 346.93638,6 345.83992,6.45 345.5,7 c -0.78041,1.2627363 2.77129,1.322448 4.05,0.068089 1.1253,-1.1038768 16.42824,-4.0462485 24.95,-4.7972607 3.3,-0.2908249 6.3375,-1.0332351 6.75,-1.64980046 0.53746,-0.80333717 0.99057,-0.74850792 1.59888,0.1934747 0.46689,0.72297646 3.95439,2.01547836 7.75,2.87222656 3.79562,0.8567482 9.78464,2.8567021 13.30894,4.4443421 3.5243,1.5876399 6.6309,2.6635448 6.90354,2.3908998 0.27265,-0.272645 -1.12129,-1.1713475 -3.09763,-1.9971169 C 405.73738,7.6990848 403.50075,5.7806779 402.74344,4.2617277 401.98612,2.7427775 400.83403,1.6125 400.18325,1.75 399.53246,1.8875 399,1.55 399,1 c 0,-0.55 1.8,-1 4,-1 2.2,0 4.00036,0.3375 4.0008,0.75 4.5e-4,0.4125 2.02545,0.8805258 4.5,1.0400574 C 414.13505,1.9598838 416,1.649003 416,1.0400574 416,0.36513259 421.39119,0 431.35648,0 l 15.35648,0 0.1485,2.75 c 0.0817,1.5125 0.37534,29.75 0.65259,62.75 0.27725,33 0.61251,65.51313 0.74502,72.25139 l 0.24093,12.2514 -74.31739,-0.001 c -70.30245,-0.001 -74.29029,-0.0959 -73.81592,-1.75139 z"
       id="path2999"
       inkscape:connector-curvature="0" />
    <path
       style="fill:#c67804"
       d="m 300.80194,129.75114 c 0.16606,-11.13813 0.61606,-34.195613 1,-51.238857 0.65899,-29.253579 0.80345,-31.007934 2.58131,-31.348986 1.57625,-0.302376 1.77692,0.06241 1.23095,2.237717 -1.05327,4.196567 0.052,3.007773 2.81526,-3.027901 6.69491,-14.6236 20.50893,-28.769652 35.07054,-35.913472 30.4196,-14.9236402 67.57698,-6.6774452 88.9443,19.739072 l 3.80062,4.698714 3.82669,-3.075215 c 6.63366,-5.330954 6.61732,-5.389518 7.34975,26.351841 0.35948,15.579271 0.74924,42.613747 0.86612,60.076607 l 0.21252,31.75065 -74,4.9e-4 -74,4.9e-4 0.30194,-20.25115 z M 344.0444,47.502903 c 0.80058,-0.0016 2.7518,-0.880616 4.33603,-1.953377 2.47706,-1.67733 4.50765,-1.934016 14.5,-1.832946 6.39077,0.06464 10.26957,-0.194997 8.61957,-0.576972 -2.49687,-0.578024 -2.69279,-0.81568 -1.16821,-1.417054 C 371.33927,41.325149 374.85635,41 378.14753,41 c 3.29117,0 6.79602,-0.434604 7.78854,-0.965788 0.99253,-0.531183 5.46294,-1.270882 9.93426,-1.643776 6.80971,-0.567908 8.12967,-0.43816 8.12967,0.799121 0,0.974566 1.02066,1.47711 3,1.47711 3.15262,0 3.47821,-0.365082 2.16731,-2.43019 -0.62594,-0.986069 -8.25322,-1.205656 -34.73468,-1 L 340.5,37.5 l -0.30402,5.888028 c -0.35085,6.794945 0.66785,10.676454 1.73607,6.614875 0.36121,-1.373403 1.31177,-2.498403 2.11235,-2.5 z"
       id="path2997"
       inkscape:connector-curvature="0" />
    <path
       style="fill:#b16c08"
       d="m 300.60339,147.75 c 0.406,-1.2375 1.03901,-7.875 1.40669,-14.75 0.36769,-6.875 0.74084,-10.34277 0.82922,-7.70616 0.10671,3.18323 0.58067,4.7393 1.4107,4.63151 2.78631,-0.36181 3.75,0.17134 3.75,2.07465 0,2.12106 3.34741,2.86493 4.5,1 1.01547,-1.64306 5.03791,-1.13536 7.42798,0.93754 1.2287,1.06564 2.88931,1.68607 3.69025,1.37872 0.80095,-0.30735 2.227,0.10235 3.16902,0.91046 0.94201,0.8081 2.50025,1.74856 3.46275,2.0899 3.09927,1.09911 1.9498,-2.07503 -1.81935,-5.02399 -1.96315,-1.53595 -4.20821,-3.99824 -4.98904,-5.47176 -0.78082,-1.47352 -2.21211,-2.94564 -3.18064,-3.27138 -0.96853,-0.32574 -3.25115,-3.05763 -5.07247,-6.07087 C 311.73497,112.76502 310,111.60181 310,115 c 0,1.11111 -0.66667,2 -1.5,2 -1.96525,0 -1.90912,-1.89045 0.12281,-4.1357 1.49829,-1.6556 1.49001,-2.122 -0.10799,-6.07874 -3.86695,-9.574845 -4.70342,-13.804247 -5.22487,-26.418286 -0.67991,-16.447128 0.9953,-24.855038 7.52071,-37.746542 3.77031,-7.448557 6.29654,-10.797347 13.77909,-18.265681 7.71022,-7.695568 10.64803,-9.871292 18.5363,-13.727847 39.28315,-19.2054328 84.50071,-1.0401144 100.9729,40.563994 L 447.38863,59.5 447.66399,102 c 0.15144,23.375 0.5043,43.74528 0.78414,45.2673 l 0.50879,2.7673 -32.72846,-0.11182 c -20.49057,-0.07 -31.98062,-0.45117 -30.72846,-1.01936 1.41386,-0.64156 0.82771,-0.73974 -2,-0.33501 -9.46852,1.35524 -26.59548,1.59724 -28.04259,0.39625 C 354.43155,148.11326 354,148.08747 354,148.87756 354,149.67984 346.27935,150 326.93261,150 l -27.06739,0 0.73817,-2.25 z m 73.64661,0.54427 c -1.2375,-0.23836 -3.2625,-0.23836 -4.5,0 -1.2375,0.23835 -0.225,0.43337 2.25,0.43337 2.475,0 3.4875,-0.19502 2.25,-0.43337 z m -30.74668,-5.28889 c -0.33809,-0.54704 -1.51022,-1.47389 -2.60474,-2.05966 -1.82769,-0.97815 -1.8851,-0.897 -0.70376,0.99462 0.70745,1.13281 1.87959,2.05966 2.60474,2.05966 0.72516,0 1.04185,-0.44758 0.70376,-0.99462 z m -6.94445,-4.53718 c -2.52654,-1.91098 -4.15444,-1.89075 -2.55887,0.0318 0.68469,0.825 1.97729,1.48569 2.87244,1.4682 1.36732,-0.0267 1.31719,-0.26656 -0.31357,-1.5 z M 428,130.50802 c 0,-1.5935 4.68311,-4.84085 7.9433,-5.50802 1.34382,-0.275 2.35029,-0.84056 2.2366,-1.25679 -0.11369,-0.41624 0.90147,-2.94368 2.25591,-5.61653 1.85202,-3.6548 2.27204,-5.57231 1.69401,-7.73367 l -0.76861,-2.87392 -1.7668,2.69648 c -0.97174,1.48306 -1.46065,3.19184 -1.08646,3.79729 1.43825,2.32715 -0.4958,5.59688 -4.30453,7.27729 -2.12431,0.93724 -4.46116,2.82292 -5.19301,4.19039 -0.73185,1.36748 -2.15858,2.7491 -3.17052,3.07028 -1.79318,0.56913 -2.44321,2.51253 -1.24212,3.71361 0.9361,0.93611 3.40223,-0.33704 3.40223,-1.75641 z m -45.12103,-9.28188 c 0.52214,-0.97562 1.12219,-15.7217 1.33344,-32.769055 0.21125,-17.047359 0.72644,-31.549123 1.14486,-32.226142 C 385.88046,55.384401 389.35625,55 396.48759,55 409.38812,55 410,54.552995 410,45.128571 c 0,-3.9 -0.50446,-7.23303 -1.2,-7.928571 -1.31197,-1.311974 -53.86131,-1.612821 -63.3,-0.362394 L 340.5,37.5 340.24352,45 c -0.14106,4.125 0.18035,8.175 0.71424,9 0.77866,1.203238 3.05246,1.453441 11.49303,1.264663 9.92111,-0.22189 10.60542,-0.107618 11.97679,2 1.16971,1.797694 1.52678,8.214328 1.82384,32.774037 0.20315,16.79629 0.70625,31.08379 1.11799,31.75 0.46921,0.75919 3.32615,1.2113 7.65442,1.2113 5.58888,0 7.08684,-0.33827 7.85514,-1.77386 z M 446,103.37756 C 446,102.0699 445.59814,101 445.10699,101 444.00487,101 443,103.48202 443,106.20423 c 0,1.70054 0.25001,1.83317 1.5,0.79577 0.825,-0.68469 1.5,-2.31479 1.5,-3.62244 z m -133,23.56342 c 0,-0.58246 0.45,-0.7809 1,-0.44098 0.55,0.33992 1,0.81648 1,1.05902 0,0.24254 -0.45,0.44098 -1,0.44098 -0.55,0 -1,-0.47656 -1,-1.05902 z"
       id="path2995"
       inkscape:connector-curvature="0" />
    <path
       style="fill:#724512"
       d="m 365.06058,145.91306 c -16.17471,-2.09318 -28.27472,-8.16818 -40.65222,-20.41007 -6.51866,-6.44724 -8.98125,-9.78904 -12.66793,-17.1907 -6.27292,-12.593985 -8.10431,-21.406481 -7.51278,-36.150898 0.52444,-13.072129 2.82197,-21.141116 9.40521,-33.031278 4.38259,-7.915518 17.41176,-21.13971 25.56819,-25.9509 17.04595,-10.0548035 39.96133,-12.48828142 58.27276,-6.1882236 18.19585,6.2602906 32.97702,18.9551856 40.9198,35.1442156 6.22275,12.68326 7.79172,19.13759 7.74595,31.864794 -0.13317,37.03649 -25.84883,66.47963 -62.83111,71.93848 -7.95993,1.17494 -8.98332,1.17351 -18.24787,-0.0254 z M 383.13922,123.0895 385.5,121.179 386,88.839499 386.5,56.5 397.10216,56 C 410.55222,55.365692 411,55.025745 411,45.448984 411,33.975824 413.42266,34.663872 374.87295,35.188702 349.95603,35.52793 341.77026,35.945778 340.57281,36.939576 339.38981,37.921372 339,40.166969 339,46 c 0,10.215967 0.44633,10.570689 12.91642,10.265303 5.27097,-0.129083 10.09374,0.09592 10.71726,0.5 1.01747,0.659386 1.35449,9.845879 2.34473,63.913267 0.0528,2.88123 3.21291,4.32143 9.48223,4.32143 4.72868,0 6.9116,-0.48055 8.67858,-1.9105 z"
       id="path2993"
       inkscape:connector-curvature="0" />
    <path
       style="fill:#562f0c"
       d="M 365.36661,144.99071 C 341.12827,141.65545 321.42604,127.09362 310.99635,104.8059 306.96299,96.186794 305.03529,86.553185 305.03214,75 c -0.003,-12.165418 1.9089,-20.170461 7.64082,-31.986653 3.90321,-8.046358 5.93862,-10.809465 13.40647,-18.199491 7.36803,-7.291257 10.32327,-9.437666 18.11257,-13.155299 10.60482,-5.0614016 15.80216,-6.4893667 26.66933,-7.3273829 27.17299,-2.0954295 54.62474,13.5300539 66.57795,37.8960379 5.98336,12.196763 7.56401,18.843874 7.54594,31.732887 -0.0183,13.029821 -1.82611,21.042943 -7.22851,32.039901 -3.41387,6.94919 -5.91638,10.24762 -13.71622,18.0787 -7.90312,7.93477 -10.99929,10.28909 -18.04049,13.71791 -13.02514,6.34281 -27.80423,8.95943 -40.63339,7.1941 z m 19.36624,-21.29373 c 1.60435,-1.60321 1.79381,-4.75688 2.05648,-34.231438 L 387.07865,57 l 9.52642,0 c 9.03379,0 12.97041,-0.914813 14.62962,-3.399704 0.40408,-0.605163 0.74158,-4.362796 0.75,-8.350296 0.0129,-6.100097 -0.32608,-7.591393 -2.13713,-9.402442 -2.14626,-2.146254 -2.24753,-2.150406 -35.23263,-1.444461 -28.24523,0.604502 -33.3385,0.941753 -34.84756,2.307429 C 338.36942,37.975654 338,39.917364 338,46 c 0,10.412262 0.53792,10.841935 14.03749,11.212671 L 362.5,57.5 l 0.5,32.339638 0.5,32.339642 2.48134,2.00798 c 2.09211,1.693 3.61882,1.95054 9.73285,1.64179 5.23496,-0.26435 7.74294,-0.85726 9.01866,-2.13207 z"
       id="path2991"
       inkscape:connector-curvature="0" />
    <path
       style="fill:#100f0b"
       d="M 362,143.31341 C 342.13131,140.02139 322.71415,125.40426 313.60191,106.8796 307.51967,94.514765 305.56694,84.931368 306.29102,71 c 1.05704,-20.337728 10.21091,-38.29516 25.83821,-50.687619 12.34703,-9.791203 23.90473,-14.1388911 39.88619,-15.0040912 8.70714,-0.4713846 11.97448,-0.2048865 19,1.5497219 37.43566,9.3494653 59.49329,44.7515053 51.47314,82.6132993 -5.22428,24.662979 -26.13708,46.172749 -51.09804,52.556689 -7.25764,1.85619 -22.0429,2.50283 -29.39052,1.28541 z m 21.31574,-17.47675 c 4.5832,-2.44103 4.61903,-2.71822 4.65246,-35.995635 L 388,58.18205 398.59009,57.841025 C 411.89068,57.412716 413,56.487567 413,45.823475 413,37.855717 411.98164,35.326463 408.1892,33.875138 406.40202,33.191206 394.63387,33.088233 373.10486,33.568145 334.60151,34.426439 337,33.600574 337,46 c 0,8.748045 1.65573,11.941828 6.25,12.055832 1.2375,0.03071 5.85,0.143208 10.25,0.25 L 361.5,58.5 362,90 c 0.50123,31.57734 0.89916,34.98856 4.23854,36.3339 2.49263,1.00421 14.93854,0.64181 17.0772,-0.49724 z"
       id="path2989"
       inkscape:connector-curvature="0" />
  </g>
</svg>
