<?xml version="1.0" encoding="UTF-8" standalone="no"?>
<!-- Created with Inkscape (http://www.inkscape.org/) -->

<svg
   xmlns:dc="http://purl.org/dc/elements/1.1/"
   xmlns:cc="http://creativecommons.org/ns#"
   xmlns:rdf="http://www.w3.org/1999/02/22-rdf-syntax-ns#"
   xmlns:svg="http://www.w3.org/2000/svg"
   xmlns="http://www.w3.org/2000/svg"
   xmlns:sodipodi="http://sodipodi.sourceforge.net/DTD/sodipodi-0.dtd"
   xmlns:inkscape="http://www.inkscape.org/namespaces/inkscape"
   width="200"
   height="200"
   id="svg2"
   version="1.1"
   inkscape:version="0.48.4 r9939"
   sodipodi:docname="drawingGIT.svg">
  <defs
     id="defs4" />
  <sodipodi:namedview
     id="base"
     pagecolor="#ffffff"
     bordercolor="#666666"
     borderopacity="1.0"
     inkscape:pageopacity="0.0"
     inkscape:pageshadow="2"
     inkscape:zoom="2.8"
     inkscape:cx="95.790198"
     inkscape:cy="102.7484"
     inkscape:document-units="px"
     inkscape:current-layer="layer1"
     showgrid="false"
     inkscape:window-width="960"
     inkscape:window-height="1027"
     inkscape:window-x="1920"
     inkscape:window-y="24"
     inkscape:window-maximized="0"
     inkscape:showpageshadow="false"
     showborder="false" />
  <metadata
     id="metadata7">
    <rdf:RDF>
      <cc:Work
         rdf:about="">
        <dc:format>image/svg+xml</dc:format>
        <dc:type
           rdf:resource="http://purl.org/dc/dcmitype/StillImage" />
        <dc:title />
      </cc:Work>
    </rdf:RDF>
  </metadata>
  <g
     inkscape:label="Layer 1"
     inkscape:groupmode="layer"
     id="layer1"
     transform="translate(0,-852.36218)">
    <g
       id="g3015"
       transform="matrix(0.88872765,0,0,0.88872765,23.781332,157.66848)">
      <path
         style="fill:#fdfdfd"
         d="m -27.142857,893.79077 0,-112.5 112.5,0 112.499997,0 0,112.5 0,112.50003 -112.499997,0 -112.5,0 0,-112.50003 z"
         id="path3031"
         inkscape:connector-curvature="0" />
      <path
         style="fill:#d1d1d1"
         d="m 42.01258,1000.817 c -27.481311,-11.31955 -51.397932,-35.78731 -62.095106,-63.52601 -8.782564,-22.77395 -9.485961,-53.80138 -1.734272,-76.50022 5.777008,-16.91649 15.312387,-31.89528 28.42331,-44.64917 22.424084,-21.81343 47.764136,-32.16257 78.750631,-32.16257 30.986497,0 56.326547,10.34914 78.750627,32.16257 17.81781,17.3326 29.3498,39.48676 32.78565,62.98471 1.86954,12.78585 0.77973,34.4451 -2.3288,46.28334 -8.4443,32.15853 -33.37596,61.35625 -63.56118,74.43717 -10.99564,4.76498 -13.43739,5.15288 -16.04213,2.54808 -1.99367,-1.9936 -2.10417,-3.11868 -2.10417,-21.42263 0,-20.50979 -0.99344,-26.86085 -4.9979,-31.9517 -2.67062,-3.39515 -2.55685,-3.7298 1.268,-3.7298 5.01528,0 17.54468,-3.78399 24.10207,-7.27905 7.83398,-4.17547 13.93874,-10.46857 17.48481,-18.02426 4.27716,-9.11343 5.61868,-15.89256 5.57985,-28.19669 -0.0393,-12.46685 -2.00465,-19.16048 -7.88916,-26.8696 l -3.2829,-4.30084 1.51674,-6.20854 c 1.36722,-5.59651 1.35911,-7.00863 -0.0822,-14.32478 -0.87944,-4.46393 -2.18405,-8.4868 -2.89912,-8.93971 -2.85216,-1.80648 -15.92608,2.54723 -25.06415,8.34654 l -4.76401,3.0234 -8.0063,-1.61324 c -10.238517,-2.06301 -30.152467,-2.10498 -40.795864,-0.086 l -8.051123,1.52728 -4.887895,-3.00756 c -8.448848,-5.19862 -22.472927,-9.75144 -25.078027,-8.1414 -0.689173,0.42593 -1.972586,4.42673 -2.852028,8.89066 -1.446998,7.34476 -1.453049,8.7136 -0.06366,14.40087 1.525361,6.24385 1.519478,6.30348 -0.90627,9.18632 -6.787494,8.06642 -9.925853,19.48932 -8.961214,32.61656 1.11349,15.15288 5.42073,26.51399 13.014093,34.32698 6.866733,7.06535 24.664269,14.67302 34.32636,14.67302 3.849283,0 3.961484,0.33076 1.272025,3.74986 -1.109832,1.41092 -2.701085,4.91546 -3.536118,7.78788 -1.432861,4.92886 -1.76707,5.29223 -5.942941,6.4614 -2.433585,0.68136 -7.273976,1.05741 -10.756425,0.83567 C 34.83317,963.63078 31.451241,961.45 25.260441,952.94203 19.342017,944.80838 14.042393,941.29077 7.706662,941.29077 c -2.667235,0 -4.849519,0.38251 -4.849519,0.85003 0,0.46752 2.672263,3.1743 5.938362,6.01506 4.369967,3.80089 6.884518,7.07587 9.52076,12.39997 4.233001,8.54889 8.363663,13.15819 13.386281,14.93743 2.161639,0.76575 8.249971,1.29521 14.903565,1.29607 l 11.248969,0.001 10e-4,11.75 c 9.46e-4,10.41791 -0.22575,11.97727 -1.998937,13.75047 -2.686799,2.6868 -4.112112,2.535 -13.844563,-1.4738 z"
         id="path3029"
         inkscape:connector-curvature="0" />
      <path
         style="fill:#aeaeae"
         d="m 42.857143,1000.9083 c -26.677762,-11.14616 -46.721799,-30.27366 -59.507972,-56.7869 -14.076731,-29.18932 -13.775805,-68.47935 0.745464,-97.33063 14.390078,-28.59062 41.642467,-50.9092 72.285992,-59.19924 9.193737,-2.4872 11.467297,-2.69896 28.976516,-2.69896 17.509217,0 19.782777,0.21176 28.976517,2.69896 30.64352,8.29004 57.89591,30.60862 72.28599,59.19924 11.07662,22.00735 14.21254,53.26035 7.82651,78 -6.48697,25.13068 -23.65502,49.73423 -44.8855,64.32543 -9.54926,6.56298 -23.72304,13.3097 -29.27653,13.9357 -6.98467,0.7873 -7.42699,-0.6322 -7.42699,-23.83441 0,-20.69679 -0.5347,-24.08093 -4.68899,-29.67672 -1.32704,-1.7875 -2.27739,-3.25591 -2.1119,-3.26314 0.16549,-0.007 4.36476,-0.85189 9.3317,-1.87705 10.12079,-2.08887 20.72887,-6.99393 27.19126,-12.57292 9.03547,-7.80034 14.85228,-25.49973 13.97954,-42.53689 -0.55546,-10.84328 -2.23892,-16.28333 -7.3486,-23.74674 -3.45581,-5.0477 -3.54961,-5.41542 -2.47254,-9.69282 1.56365,-6.20986 1.29932,-13.10957 -0.74937,-19.56044 l -1.74671,-5.5 -4.53856,0.14874 c -4.6405,0.15207 -17.06422,5.23439 -22.82785,9.33846 -2.91649,2.07672 -3.06651,2.08246 -10.7379,0.41083 -10.410017,-2.2684 -31.102637,-2.27916 -41.455757,-0.0216 l -7.67568,1.67375 -4.781427,-3.03229 c -5.816574,-3.68876 -19.341095,-9.01792 -22.88598,-9.01792 -2.017379,0 -2.910474,0.78307 -4.076852,3.57461 -2.194661,5.25256 -2.870223,15.31507 -1.430982,21.31451 1.228755,5.12202 1.212276,5.19514 -2.34051,10.38461 -5.095329,7.44263 -6.779423,12.89048 -7.334497,23.72627 -0.607181,11.85297 1.340755,21.79168 6.210034,31.68468 6.838931,13.89477 17.796686,20.3529 42.368146,24.97036 l 2.376571,0.4466 -2.123166,2.26001 c -1.167741,1.243 -2.95425,4.70501 -3.970019,7.69336 -1.663181,4.89299 -2.235368,5.5506 -5.753406,6.61232 -10.666271,3.219 -20.398106,0.36252 -25.78328,-7.56788 -6.797067,-10.00962 -16.097284,-16.20123 -22.0799,-14.69969 -3.232404,0.81128 -3.203758,1.80992 0.136122,4.74528 7.269273,6.38883 10.388746,10.32764 13.693638,17.29029 5.66755,11.94023 12.404171,15.22864 30.376868,14.82813 l 8.25,-0.18385 0,11.30521 c 0,9.68231 -0.262521,11.54284 -1.828741,12.96024 -2.480767,2.245 -6.601334,2.0174 -13.171259,-0.7275 z"
         id="path3027"
         inkscape:connector-curvature="0" />
      <path
         style="fill:#8e8e8e"
         d="M 39.697839,999.39034 C 17.154727,989.51207 -2.801413,970.70537 -14.435987,948.37451 -22.47975,932.93569 -25.976662,919.63355 -26.813519,901.29077 -29.246973,847.95274 5.81971,800.96668 58.357143,787.17009 c 7.858665,-2.06373 11.28267,-2.36345 27,-2.36345 15.717327,0 19.141327,0.29972 26.999997,2.36345 52.53743,13.79659 87.60412,60.78265 85.17066,114.12068 -1.34268,29.42985 -11.25136,52.28576 -31.93748,73.66877 -10.5875,10.94419 -21.9386,18.92119 -34.83781,24.48235 -17.16664,7.40091 -17.89332,6.58401 -17.90095,-20.12363 -0.006,-20.95523 -0.6701,-25.30017 -4.57669,-29.9429 l -2.50542,-2.97751 3.79385,-0.63685 c 31.78072,-5.33483 45.53992,-19.99625 47.01631,-50.09926 0.4667,-9.51589 0.23785,-12.14294 -1.57883,-18.12399 -1.16856,-3.84723 -3.71067,-9.30062 -5.64913,-12.11865 -3.41281,-4.96134 -3.48793,-5.26881 -2.37103,-9.70443 1.40217,-5.56853 0.60885,-16.73544 -1.55723,-21.91957 -1.56056,-3.73497 -1.60871,-3.75965 -6.30183,-3.23067 -2.92633,0.32984 -8.81803,2.60506 -15.45447,5.96812 l -10.7252,5.43505 -6.79238,-1.5265 c -9.092077,-2.04334 -32.478317,-2.04675 -41.555227,-0.006 l -6.762861,1.52046 -10.737139,-5.35215 c -6.813061,-3.39611 -12.595411,-5.5714 -15.821777,-5.95205 l -5.084636,-0.5999 -1.665364,5.93531 c -1.902058,6.77888 -2.140284,15.05364 -0.593729,20.6231 0.945643,3.40546 0.798233,4.16347 -1.361292,7 -6.890165,9.05023 -9.189754,17.93923 -8.427623,32.57675 1.542717,29.6295 15.437795,44.26479 47.079286,49.58727 l 3.862004,0.64963 -2.235006,2.37906 c -1.229253,1.30848 -3.009841,4.76613 -3.956863,7.68367 -1.657606,5.10668 -1.904891,5.35294 -6.626999,6.59963 -7.097077,1.8737 -14.619526,1.08339 -18.938645,-1.98971 -1.957455,-1.39275 -5.564187,-5.28798 -8.014961,-8.65606 -5.321154,-7.31283 -10.834521,-11.21265 -16.802917,-11.88538 -7.435949,-0.83814 -7.311796,2.10546 0.333562,7.90857 3.268465,2.48088 5.714679,5.74309 9.033723,12.04713 5.62404,10.68204 6.824742,12.02387 13.3054,14.86923 4.307077,1.89104 6.988017,2.28025 15.928697,2.31247 l 10.75,0.0387 0,10.55749 c 0,16.55248 -2.388588,18.01278 -18.159304,11.10208 z"
         id="path3025"
         inkscape:connector-curvature="0" />
      <path
         style="fill:#6d6d6d"
         d="M 41.886622,1000.2014 C 27.649078,994.4196 15.620173,986.04406 4.041061,973.85014 -37.874496,929.70904 -37.296113,861.10816 5.357143,817.75198 c 21.396862,-21.74948 49.397596,-33.46121 80,-33.46121 18.246247,0 33.652747,3.61406 49.999997,11.72903 12.19567,6.05407 20.47998,12.05527 30,21.73218 37.04335,37.65382 42.98176,95.98073 14.24133,139.87806 -7.03676,10.74776 -22.28762,26.37196 -31.74133,32.51837 -8.00725,5.20598 -19.38326,10.71759 -25.49506,12.35229 -7.97582,2.1332 -7.91947,2.2798 -8.57601,-22.3161 -0.49453,-18.52648 -0.842,-21.99978 -2.59251,-25.91491 -1.11179,-2.48659 -2.7354,-5.23504 -3.60802,-6.10766 -1.44877,-1.44878 -0.84003,-1.73327 7.00864,-3.2754 29.33046,-5.76293 43.23498,-24.05973 42.09003,-55.38576 -0.33182,-9.07855 -0.81155,-11.6177 -3.14908,-16.66791 -1.51669,-3.27679 -3.88632,-7.43761 -5.26584,-9.24626 -2.2366,-2.93232 -2.39533,-3.69496 -1.46576,-7.04219 1.52107,-5.47717 1.28577,-13.79511 -0.57817,-20.43814 -1.60692,-5.72702 -1.68688,-5.81508 -5.25,-5.78118 -4.33937,0.0413 -15.75724,4.43376 -22.463,8.64157 l -4.84477,3.04006 -6.65523,-1.54138 c -4.42225,-1.02422 -11.688027,-1.54139 -21.655217,-1.54139 -9.96719,0 -17.232967,0.51717 -21.655224,1.54139 l -6.655224,1.54138 -4.722788,-2.93954 c -6.712276,-4.17783 -18.677982,-8.77651 -22.836346,-8.77651 -3.220793,0 -3.636341,0.33468 -4.656113,3.75 -1.803405,6.03979 -2.336597,16.75413 -1.081753,21.73756 1.073184,4.262 0.979708,4.81336 -1.329283,7.8406 -1.366003,1.79092 -3.724571,5.93724 -5.241262,9.21403 -2.337531,5.05021 -2.817253,7.58936 -3.149072,16.66791 -1.199481,32.81774 13.514705,50.80438 46.006752,56.23871 l 3.679686,0.61543 -2.929686,5.56943 c -1.611328,3.06318 -2.929687,6.35149 -2.929687,7.30736 0,4.01808 -13.246928,6.38209 -20.417453,3.64365 -4.189739,-1.60008 -6.037436,-3.34181 -15.395486,-14.51254 -3.811039,-4.54925 -10.372344,-8.07214 -15.03417,-8.07214 -4.491601,0 -5.343012,2.69425 -1.711289,5.41529 6.098318,4.56911 9.990456,9.35351 13.441701,16.52317 4.76334,9.89543 9.228742,13.39372 19.255142,15.08489 3.983654,0.67193 9.81465,0.9529 12.957769,0.62438 l 5.714762,-0.59731 0.713545,10.46865 c 1.115444,16.36506 -1.183402,18.20346 -15.495042,12.39156 z"
         id="path3023"
         inkscape:connector-curvature="0" />
      <path
         style="fill:#4f4f4f"
         d="M 43.857143,1000.9062 C 28.834562,994.62391 18.885522,988.20501 7.893305,977.70311 -48.25266,924.06157 -34.349807,831.31067 35.101047,796.19054 c 49.932616,-25.25009 112.362413,-8.87325 143.274173,37.58425 30.76768,46.24097 24.16032,106.22043 -15.89246,144.26666 -9.27318,8.80862 -17.30331,14.27608 -29.34589,19.98071 -10.4337,4.94244 -16.20886,6.26634 -17.98259,4.12234 -0.72267,-0.8736 -1.23999,-8.83504 -1.45851,-22.44619 l -0.33863,-21.09245 -3.11039,-6.02731 -3.11038,-6.0273 7.96606,-1.5694 c 17.17919,-3.38449 30.16203,-12.39162 36.21642,-25.12594 4.26889,-8.97885 5.74625,-16.36268 5.69184,-28.44773 -0.0509,-11.30537 -2.20156,-18.66153 -7.68901,-26.29966 -3.35666,-4.67223 -3.49972,-5.18113 -2.39627,-8.5246 1.32769,-4.02295 0.75145,-16.66197 -1.02779,-22.54315 -1.02771,-3.39706 -1.46182,-3.75 -4.61247,-3.75 -4.68471,0 -13.49643,3.20263 -21.4138,7.78289 l -6.51421,3.76851 -5.5,-1.40383 c -7.948427,-2.02875 -36.622294,-2.05811 -44.544943,-0.0456 l -6.044946,1.53554 -4.455054,-2.81131 c -6.218266,-3.92397 -19.206182,-8.8262 -23.384054,-8.8262 -3.343894,0 -3.559422,0.22192 -5.032259,5.1815 -1.777743,5.98631 -2.022319,17.13286 -0.473419,21.57604 0.959205,2.75157 0.708469,3.5527 -2.517153,8.04253 -5.752816,8.0075 -7.71494,14.96311 -7.672891,27.19993 0.103991,30.26249 14.688837,48.03442 43.544094,53.05934 l 6.571727,1.14442 -1.960734,2.7536 c -1.078403,1.51447 -2.516345,4.83096 -3.195426,7.36997 -1.383791,5.17384 -3.159422,6.22321 -12.359924,7.30455 -6.780358,0.7969 -12.937748,-1.87355 -17.560095,-7.6158 -10.289472,-12.78238 -14.611505,-16.01608 -21.406467,-16.01608 -4.921191,0 -5.789089,2.55321 -1.925912,5.66572 6.649705,5.35757 9.685984,9.09214 12.902,15.86925 5.992524,12.62805 11.900526,15.96503 28.265459,15.96503 l 10.25,0 0,11.55 c 0,7.65 -0.405195,11.95523 -1.2,12.75003 -1.781258,1.7812 -5.632386,1.3946 -11.8,-1.1846 z"
         id="path3021"
         inkscape:connector-curvature="0" />
      <path
         style="fill:#313131"
         d="m 41.412616,999.79821 c -25.717847,-11.22698 -45.098809,-29.87762 -57.161442,-55.00744 -9.165336,-19.09395 -12.524399,-38.04718 -10.470667,-59.07986 4.855236,-49.72344 40.398407,-88.80023 90.576636,-99.58154 7.804168,-1.67681 34.19583,-1.67681 41.999997,0 35.75491,7.68231 63.96306,29.21782 79.45694,60.6614 9.41757,19.11219 13.26232,39.98637 11.16201,60.60156 -1.47954,14.52212 -4.33028,24.59824 -10.61714,37.52696 -12.34118,25.37921 -31.33905,43.65177 -57.05728,54.87892 -15.03336,6.56269 -15.43702,6.08439 -15.46898,-18.32887 -0.0265,-20.26305 -0.80611,-25.74962 -4.4457,-31.28781 l -2.37193,-3.60925 8.5038,-1.67085 c 20.36009,-4.00041 34.63481,-16.14332 39.28686,-33.41969 4.83235,-17.94598 2.45752,-36.82203 -5.95513,-47.33374 -2.58806,-3.23381 -2.80509,-4.01966 -1.93322,-7 1.52771,-5.22223 1.27851,-15.18019 -0.53611,-21.42224 l -1.64898,-5.6723 -5.37532,0.44577 c -3.90004,0.32342 -8.24765,1.89099 -15.8408,5.71153 l -10.46547,5.26577 -9.27299,-1.59288 c -11.802167,-2.02733 -24.733247,-2.02603 -36.916768,0.004 l -9.583513,1.59659 -6.525776,-3.58702 c -7.956392,-4.37338 -17.083071,-7.60615 -21.473498,-7.60615 -2.817874,0 -3.417557,0.45953 -4.371429,3.34979 -2.394733,7.25611 -2.937662,14.28016 -1.604024,20.75177 1.298816,6.30262 1.292831,6.34133 -1.525211,9.86295 -8.323583,10.40172 -10.679653,29.36074 -5.868915,47.22646 4.685852,17.40193 18.487322,29.20709 39.095892,33.44088 l 8.647314,1.77649 -2.418868,3.54583 c -1.330378,1.95021 -2.688996,5.21653 -3.019152,7.25849 -0.649359,4.01618 -2.261755,4.93814 -10.993986,6.28631 -8.935637,1.37957 -13.738011,-1.5112 -24.706274,-14.87185 -4.583866,-5.5837 -10.092966,-8.62712 -15.616511,-8.62712 -3.368935,0 -4.039838,0.3311 -4.039838,1.99373 0,1.18731 1.672759,3.20547 4.13564,4.98957 5.102569,3.69628 8.300369,7.86977 11.506062,15.0167 2.919728,6.50939 6.386266,10.40038 11.858298,13.31026 3.383044,1.79901 5.734852,2.13192 15.247817,2.15842 l 11.247817,0.0313 0.0022,11.55 c 0.0014,7.65268 -0.402734,11.95495 -1.197817,12.74995 -1.985606,1.9857 -5.880364,1.3588 -14.244527,-2.29251 z"
         id="path3019"
         inkscape:connector-curvature="0" />
      <path
         style="fill:#000000"
         d="M 39.857143,998.94365 C 22.090655,991.00438 7.877651,979.74162 -3.747433,964.39025 -31.201965,928.13547 -34.130015,879.63658 -11.269944,839.79077 -6.47334,831.43014 0.464875,822.86729 9.045469,814.71833 c 42.300829,-40.17291 110.322521,-40.17291 152.623341,0 20.93069,19.87778 32.91796,44.40381 35.12559,71.86716 1.74796,21.745 -1.68526,40.35811 -10.92051,59.20528 -11.8166,24.11514 -30.86936,42.45557 -55.27016,53.20377 -16.75999,7.38256 -16.74659,7.39696 -16.74659,-18.0937 0,-20.33852 -1.02597,-26.95544 -4.92456,-31.76068 l -1.90611,-2.34939 8.46093,-1.67708 c 11.13359,-2.20684 20.1234,-6.53095 26.89774,-12.93785 6.5094,-6.15631 8.81292,-9.65631 11.5049,-17.48068 6.235,-18.12236 4.1717,-39.03703 -4.97926,-50.47226 -2.84874,-3.55985 -2.8519,-3.58006 -1.40731,-9 2.10368,-7.89268 -0.22171,-22.77501 -3.92577,-25.12478 -2.27031,-1.44023 -8.17643,0.3275 -19.36155,5.79499 l -11.14098,5.44592 -8.74001,-1.52413 c -11.194007,-1.95207 -26.678897,-1.94441 -38.108113,0.0189 l -8.982529,1.54298 -8.443687,-4.49112 c -9.706368,-5.16273 -19.250539,-8.03617 -21.929721,-6.60232 -3.568796,1.90997 -5.788523,17.00965 -3.666243,24.93961 1.451305,5.42284 1.448908,5.43824 -1.401369,9 -9.304434,11.62702 -11.239695,31.96625 -4.843657,50.90596 5.271445,15.6096 18.799751,26.14142 38.580059,30.03468 5.097506,1.00331 8.253266,2.04874 7.531311,2.49493 -1.754583,1.08439 -5.214068,8.14625 -5.214068,10.64349 0,3.28488 -5.954199,5.26022 -14.54765,4.82627 -8.540276,-0.43126 -12.345591,-2.82456 -17.974404,-11.30472 -4.843754,-7.29743 -11.303688,-11.53274 -17.590374,-11.53274 -2.623246,0 -5.081963,0.50551 -5.463816,1.12336 -0.403536,0.65294 2.058119,3.68901 5.878326,7.25 4.710767,4.39113 7.435799,7.96791 9.619837,12.62664 3.461973,7.38467 7.514072,11.99455 12.882253,14.65553 2.91885,1.44686 6.060303,1.83331 14.942854,1.83824 l 11.247026,0.006 0.003,11.17857 c 0.0043,16.28984 -1.236016,17.01764 -16.997052,9.97454 z"
         id="path3017"
         inkscape:connector-curvature="0" />
    </g>
  </g>
</svg>
