<?xml version="1.0" encoding="UTF-8" standalone="no"?>
<!-- Created with Inkscape (http://www.inkscape.org/) -->

<svg
   xmlns:dc="http://purl.org/dc/elements/1.1/"
   xmlns:cc="http://creativecommons.org/ns#"
   xmlns:rdf="http://www.w3.org/1999/02/22-rdf-syntax-ns#"
   xmlns:svg="http://www.w3.org/2000/svg"
   xmlns="http://www.w3.org/2000/svg"
   xmlns:xlink="http://www.w3.org/1999/xlink"
   xmlns:sodipodi="http://sodipodi.sourceforge.net/DTD/sodipodi-0.dtd"
   xmlns:inkscape="http://www.inkscape.org/namespaces/inkscape"
   width="744.09448819"
   height="1052.3622047"
   id="svg2"
   version="1.1"
   inkscape:version="0.48.4 r9939"
   sodipodi:docname="mainGraph.svg">
  <defs
     id="defs4" />
  <sodipodi:namedview
     id="base"
     pagecolor="#ffffff"
     bordercolor="#666666"
     borderopacity="1.0"
     inkscape:pageopacity="0.0"
     inkscape:pageshadow="2"
     inkscape:zoom="1.4"
     inkscape:cx="207.03522"
     inkscape:cy="739.83409"
     inkscape:document-units="px"
     inkscape:current-layer="layer1"
     showgrid="false"
     inkscape:window-width="1920"
     inkscape:window-height="1056"
     inkscape:window-x="0"
     inkscape:window-y="24"
     inkscape:window-maximized="1" />
  <metadata
     id="metadata7">
    <rdf:RDF>
      <cc:Work
         rdf:about="">
        <dc:format>image/svg+xml</dc:format>
        <dc:type
           rdf:resource="http://purl.org/dc/dcmitype/StillImage" />
        <dc:title />
      </cc:Work>
    </rdf:RDF>
  </metadata>
  <g
     inkscape:label="Layer 1"
     inkscape:groupmode="layer"
     id="layer1">
    <path
       transform="matrix(1.3842042,0,0,1.3169491,-139.77334,-119.84889)"
       sodipodi:type="arc"
       style="fill:#00004d;fill-opacity:0.34703196"
       id="path2985-4-3-9"
       sodipodi:cx="288.57144"
       sodipodi:cy="323.79074"
       sodipodi:rx="111.42857"
       sodipodi:ry="117.14286"
       d="M 177.14287,323.79074 A 111.42857,117.14286 0 0 1 288.57144,206.64788 l 0,117.14286 z"
       sodipodi:start="3.1415927"
       sodipodi:end="4.712389" />
    <path
       transform="matrix(1.8794699,0,0,1.7881511,-281.68278,-273.30588)"
       sodipodi:type="arc"
       style="fill:#00004d;fill-opacity:0.34703196"
       id="path2985-4-3-9-8"
       sodipodi:cx="288.57144"
       sodipodi:cy="323.79074"
       sodipodi:rx="111.42857"
       sodipodi:ry="117.14286"
       d="M 177.14287,323.79074 A 111.42857,117.14286 0 0 1 288.57144,206.64788 l 0,117.14286 z"
       sodipodi:start="3.1415927"
       sodipodi:end="4.712389" />
    <path
       sodipodi:type="arc"
       style="fill:#00004d;fill-opacity:0.34703196"
       id="path2985"
       sodipodi:cx="288.57144"
       sodipodi:cy="323.79074"
       sodipodi:rx="111.42857"
       sodipodi:ry="117.14286"
       d="M 400.00002,323.79074 A 111.42857,117.14286 0 0 1 288.57144,440.9336 l 0,-117.14286 z"
       sodipodi:start="0"
       sodipodi:end="1.5707963"
       transform="translate(-12,0)" />
    <path
       transform="translate(-28.571443,1.1090575e-5)"
       sodipodi:type="arc"
       style="fill:#00004d;fill-opacity:0.34703196"
       id="path2985-4"
       sodipodi:cx="288.57144"
       sodipodi:cy="323.79074"
       sodipodi:rx="111.42857"
       sodipodi:ry="117.14286"
       d="M 288.57144,440.9336 A 111.42857,117.14286 0 0 1 177.14287,323.79074 l 111.42857,0 z"
       sodipodi:start="1.5707963"
       sodipodi:end="3.1415927" />
    <path
       transform="translate(-28.571446,-17.428554)"
       sodipodi:type="arc"
       style="fill:#00004d;fill-opacity:0.34703196"
       id="path2985-4-3"
       sodipodi:cx="288.57144"
       sodipodi:cy="323.79074"
       sodipodi:rx="111.42857"
       sodipodi:ry="117.14286"
       d="M 177.14287,323.79074 A 111.42857,117.14286 0 0 1 288.57144,206.64788 l 0,117.14286 z"
       sodipodi:start="3.1415927"
       sodipodi:end="4.712389" />
    <path
       transform="translate(-10.857157,-18.571417)"
       sodipodi:type="arc"
       style="fill:#00004d;fill-opacity:0.34703196"
       id="path2985-4-3-2"
       sodipodi:cx="288.57144"
       sodipodi:cy="323.79074"
       sodipodi:rx="111.42857"
       sodipodi:ry="117.14286"
       d="m 288.57144,206.64788 a 111.42857,117.14286 0 0 1 111.42858,117.14286 l -111.42858,0 z"
       sodipodi:start="4.712389"
       sodipodi:end="6.2831853" />
    <path
       sodipodi:type="arc"
       style="fill:#00004d;fill-opacity:0.34703196"
       id="path2985-9"
       sodipodi:cx="288.57144"
       sodipodi:cy="323.79074"
       sodipodi:rx="111.42857"
       sodipodi:ry="117.14286"
       d="M 400.00002,323.79074 A 111.42857,117.14286 0 0 1 288.57144,440.9336 l 0,-117.14286 z"
       sodipodi:start="0"
       sodipodi:end="1.5707963"
       transform="matrix(1.3842042,0,0,1.3169491,-122.83507,-102.89637)" />
    <path
       transform="matrix(1.3842042,0,0,1.3169491,-139.77334,-102.89635)"
       sodipodi:type="arc"
       style="fill:#00004d;fill-opacity:0.34703196"
       id="path2985-4-4"
       sodipodi:cx="288.57144"
       sodipodi:cy="323.79074"
       sodipodi:rx="111.42857"
       sodipodi:ry="117.14286"
       d="M 288.57144,440.9336 A 111.42857,117.14286 0 0 1 177.14287,323.79074 l 111.42857,0 z"
       sodipodi:start="1.5707963"
       sodipodi:end="3.1415927" />
    <path
       transform="matrix(1.3842042,0,0,1.3169491,-121.25314,-121.35398)"
       sodipodi:type="arc"
       style="fill:#00004d;fill-opacity:0.34703196"
       id="path2985-4-3-2-2"
       sodipodi:cx="288.57144"
       sodipodi:cy="323.79074"
       sodipodi:rx="111.42857"
       sodipodi:ry="117.14286"
       d="m 288.57144,206.64788 a 111.42857,117.14286 0 0 1 111.42858,117.14286 l -111.42858,0 z"
       sodipodi:start="4.712389"
       sodipodi:end="6.2831853" />
    <path
       sodipodi:type="arc"
       style="fill:#00004d;fill-opacity:0.34703196"
       id="path2985-9-2"
       sodipodi:cx="288.57144"
       sodipodi:cy="323.79074"
       sodipodi:rx="111.42857"
       sodipodi:ry="117.14286"
       d="M 400.00002,323.79074 A 111.42857,117.14286 0 0 1 288.57144,440.9336 l 0,-117.14286 z"
       sodipodi:start="0"
       sodipodi:end="1.5707963"
       transform="matrix(1.8794699,0,0,1.7881511,-265.82689,-255.28778)" />
    <path
       transform="matrix(1.8794699,0,0,1.7881511,-282.39707,-255.28775)"
       sodipodi:type="arc"
       style="fill:#00004d;fill-opacity:0.34703196"
       id="path2985-4-4-5"
       sodipodi:cx="288.57144"
       sodipodi:cy="323.79074"
       sodipodi:rx="111.42857"
       sodipodi:ry="117.14286"
       d="M 288.57144,440.9336 A 111.42857,117.14286 0 0 1 177.14287,323.79074 l 111.42857,0 z"
       sodipodi:start="1.5707963"
       sodipodi:end="3.1415927" />
    <path
       transform="matrix(1.8794699,0,0,1.7881511,-264.39323,-273.92091)"
       sodipodi:type="arc"
       style="fill:#00004d;fill-opacity:0.34703196"
       id="path2985-4-3-2-2-5"
       sodipodi:cx="288.57144"
       sodipodi:cy="323.79074"
       sodipodi:rx="111.42857"
       sodipodi:ry="117.14286"
       d="m 288.57144,206.64788 a 111.42857,117.14286 0 0 1 111.42858,117.14286 l -111.42858,0 z"
       sodipodi:start="4.712389"
       sodipodi:end="6.2831853" />
    <text
       xml:space="preserve"
       style="font-size:33px;font-style:normal;font-weight:normal;line-height:125%;letter-spacing:0px;word-spacing:0px;fill:#000000;fill-opacity:1;stroke:none;font-family:Sans"
       id="text3002"
       sodipodi:linespacing="125%"><textPath
         xlink:href="#path2985-4-3"
         id="textPath3006"><tspan
   id="tspan3004">  physics</tspan></textPath></text>
  </g>
</svg>
